<?xml version="1.0" standalone="no"?>
<!DOCTYPE svg PUBLIC "-//W3C//DTD SVG 20010904//EN"
 "http://www.w3.org/TR/2001/REC-SVG-20010904/DTD/svg10.dtd">
<svg version="1.0" xmlns="http://www.w3.org/2000/svg"
 width="225.000000pt" height="225.000000pt" viewBox="0 0 225.000000 225.000000"
 preserveAspectRatio="xMidYMid meet">

<g transform="translate(0.000000,225.000000) scale(0.100000,-0.100000)"
fill="#000000" stroke="none">
<path d="M1344 1921 c-49 -22 -110 -98 -121 -150 -5 -20 -8 -102 -8 -183 0
-81 -3 -144 -6 -140 -3 4 -11 26 -19 49 -53 171 -294 223 -532 116 -32 -14
-58 -27 -58 -29 0 -1 12 -29 26 -62 l25 -59 82 28 c171 60 267 27 267 -90 l0
-39 -122 -4 c-150 -5 -206 -26 -272 -99 -97 -108 -86 -271 25 -379 121 -117
381 -109 547 18 31 24 32 26 33 106 l1 81 12 -50 c19 -74 31 -99 67 -140 43
-49 114 -83 198 -95 176 -25 271 35 271 171 l0 57 -41 -15 c-23 -7 -75 -14
-115 -15 -85 -2 -116 14 -146 73 -16 29 -18 64 -18 247 l0 212 115 0 c167 0
205 27 205 145 l0 55 -160 0 -160 0 0 105 0 105 -27 0 c-16 0 -47 -9 -69 -19z
m-344 -827 l0 -125 -35 -15 c-19 -7 -55 -14 -80 -14 -37 0 -52 6 -82 33 -31
29 -37 41 -40 88 -8 105 49 159 169 159 l68 0 0 -126z"/>
<path d="M680 596 c-7 -36 -10 -71 -7 -78 2 -7 10 14 16 47 7 33 15 68 17 78
3 9 1 17 -4 17 -5 0 -15 -29 -22 -64z"/>
<path d="M802 648 c-7 -7 -12 -18 -12 -25 0 -7 -3 -13 -7 -13 -5 0 -8 -17 -9
-38 0 -55 -12 -90 -32 -96 -10 -3 -7 -4 8 -3 22 2 26 9 38 64 9 42 19 63 30
66 15 4 14 5 -1 6 -25 1 -17 23 14 38 22 12 22 13 4 13 -12 0 -26 -5 -33 -12z"/>
<path d="M1536 649 c-7 -20 -26 -118 -26 -131 0 -33 19 15 29 71 10 59 8 94
-3 60z"/>
<path d="M730 640 c0 -5 5 -10 10 -10 6 0 10 5 10 10 0 6 -4 10 -10 10 -5 0
-10 -4 -10 -10z"/>
<path d="M980 640 c0 -5 5 -10 10 -10 6 0 10 5 10 10 0 6 -4 10 -10 10 -5 0
-10 -4 -10 -10z"/>
<path d="M1220 640 c0 -5 5 -10 10 -10 6 0 10 5 10 10 0 6 -4 10 -10 10 -5 0
-10 -4 -10 -10z"/>
<path d="M726 579 c-7 -38 -8 -74 -1 -67 9 9 23 98 15 98 -4 0 -10 -14 -14
-31z"/>
<path d="M840 590 c-26 -48 10 -104 44 -70 8 9 7 11 -4 10 -48 -7 -55 13 -10
29 20 7 30 17 30 30 0 29 -45 29 -60 1z m50 0 c0 -5 -9 -14 -20 -20 -15 -8
-20 -8 -20 3 0 8 3 17 7 20 10 10 33 8 33 -3z"/>
<path d="M975 598 c-11 -37 -16 -92 -7 -83 12 12 27 95 18 95 -4 0 -8 -6 -11
-12z"/>
<path d="M1020 592 c0 -10 7 -27 15 -39 17 -24 7 -37 -21 -26 -12 4 -15 3 -10
-5 10 -17 46 -15 52 3 4 8 -1 26 -10 40 -21 31 -20 33 7 38 19 4 18 4 -5 6
-21 1 -28 -4 -28 -17z"/>
<path d="M1135 600 c-4 -6 1 -22 10 -36 18 -28 12 -46 -13 -37 -13 5 -14 3 -6
-7 14 -15 54 -4 54 14 0 8 -7 19 -15 26 -20 17 -19 37 3 43 13 4 12 5 -5 6
-12 0 -25 -4 -28 -9z"/>
<path d="M1215 598 c-11 -37 -16 -92 -7 -83 12 12 27 95 18 95 -4 0 -8 -6 -11
-12z"/>
<path d="M1260 596 c0 -6 -3 -29 -6 -51 l-5 -40 23 44 c27 53 44 51 40 -4 l-2
-40 17 44 c26 64 47 67 41 7 -6 -52 6 -63 16 -15 10 52 7 69 -12 69 -10 0 -23
-5 -30 -12 -9 -9 -12 -9 -12 0 0 7 -14 11 -35 10 -19 -1 -35 -6 -35 -12z"/>
<path d="M1415 561 c-3 -25 -9 -56 -12 -68 -3 -14 -1 -23 6 -23 6 0 11 9 11
20 0 13 7 20 18 20 33 0 58 41 53 87 -1 7 -15 12 -35 11 -33 -1 -34 -3 -41
-47z m65 12 c0 -18 -28 -53 -42 -53 -13 0 -9 34 8 58 16 24 34 21 34 -5z"/>
<path d="M1570 590 c-26 -48 10 -104 44 -70 8 9 7 11 -4 10 -48 -7 -55 13 -10
29 20 7 30 17 30 30 0 29 -45 29 -60 1z m50 0 c0 -5 -9 -14 -20 -20 -15 -8
-20 -8 -20 3 0 8 3 17 7 20 10 10 33 8 33 -3z"/>
</g>
</svg>
