<?xml version="1.0" standalone="no"?>
<!DOCTYPE svg PUBLIC "-//W3C//DTD SVG 20010904//EN"
 "http://www.w3.org/TR/2001/REC-SVG-20010904/DTD/svg10.dtd">
<svg version="1.0" xmlns="http://www.w3.org/2000/svg"
 width="440.000000pt" height="197.000000pt" viewBox="0 0 440.000000 197.000000"
 preserveAspectRatio="xMidYMid meet">

<g transform="translate(0.000000,197.000000) scale(0.100000,-0.100000)"
fill="#000000" stroke="none">
<path d="M10 1368 l0 -203 63 -34 c91 -50 212 -176 264 -276 56 -109 73 -172
73 -274 0 -197 -85 -381 -240 -524 l-62 -57 68 25 c256 96 441 299 490 540 22
105 15 297 -14 407 -58 215 -199 396 -392 501 -64 35 -168 78 -222 91 l-28 6
0 -202z"/>
<path d="M1390 1544 c-280 -95 -462 -282 -546 -559 -25 -82 -27 -105 -28 -250
0 -147 2 -166 27 -240 28 -85 77 -174 128 -234 78 -91 222 -190 342 -235 l62
-24 -76 77 c-137 139 -206 289 -216 468 -7 122 2 166 63 291 37 76 59 107 127
175 45 45 110 98 144 117 l62 35 1 203 c0 111 -3 202 -7 202 -5 0 -42 -12 -83
-26z"/>
<path d="M1711 990 c-83 -22 -121 -43 -121 -65 0 -11 7 -14 25 -9 l25 6 0
-281 0 -281 165 0 c186 0 205 5 251 66 34 44 43 122 21 175 -8 19 -35 53 -59
75 l-45 39 25 33 c36 47 41 118 12 170 -47 83 -159 110 -299 72z m204 -95 c17
-16 25 -35 25 -60 0 -25 -8 -44 -25 -60 -22 -22 -32 -25 -105 -25 l-80 0 0 85
0 85 80 0 c73 0 83 -3 105 -25z m25 -260 c41 -21 60 -53 60 -100 0 -84 -49
-115 -180 -115 l-90 0 0 115 0 115 90 0 c61 0 100 -5 120 -15z"/>
<path d="M2290 831 c-106 -33 -180 -128 -180 -233 0 -126 116 -239 244 -238
177 2 290 188 211 347 -50 100 -172 155 -275 124z m138 -101 c47 -29 72 -76
72 -135 0 -161 -203 -215 -277 -75 -29 55 -29 95 0 150 40 75 134 103 205 60z"/>
<path d="M2620 600 l0 -240 45 0 45 0 0 153 c1 104 5 159 14 175 21 38 66 62
119 62 53 0 84 -12 108 -43 16 -20 17 -20 23 10 22 97 -104 150 -226 95 l-48
-21 0 25 c0 21 -4 24 -40 24 l-40 0 0 -240z"/>
<path d="M3091 828 c-78 -13 -106 -48 -93 -113 5 -27 22 -35 22 -11 0 27 42
46 100 46 146 0 129 -100 -25 -145 -84 -24 -121 -91 -95 -170 24 -74 122 -95
207 -45 41 24 43 24 43 5 0 -42 88 -36 107 8 15 33 5 47 -33 47 l-34 0 0 145
c0 157 -9 193 -53 217 -33 18 -96 25 -146 16z m129 -303 l0 -66 -42 -19 c-53
-24 -76 -25 -100 -3 -19 17 -24 68 -9 92 7 10 99 48 149 60 1 1 2 -28 2 -64z"/>
<path d="M1690 243 c-56 -51 -46 -160 17 -184 49 -18 122 6 95 33 -6 6 -12 6
-16 -1 -12 -18 -62 -12 -82 10 -11 13 -19 35 -19 59 0 52 27 80 77 80 39 0 51
13 22 24 -32 12 -65 5 -94 -21z"/>
<path d="M1898 177 c-54 -132 -52 -127 -34 -127 8 0 18 11 22 25 5 22 12 25
50 25 38 0 44 -3 50 -25 4 -15 13 -25 24 -25 16 0 13 12 -22 103 -22 56 -42
105 -46 109 -4 4 -24 -35 -44 -85z m60 -14 c11 -32 10 -33 -19 -33 -32 0 -34
3 -18 49 13 36 21 32 37 -16z"/>
<path d="M2070 161 c0 -92 3 -111 15 -111 11 0 15 11 15 39 0 36 2 39 36 44
50 8 64 23 64 67 0 47 -17 62 -80 68 l-50 5 0 -112z m94 64 c26 -27 2 -65 -41
-65 -20 0 -23 5 -23 40 0 36 3 40 24 40 14 0 31 -7 40 -15z"/>
<path d="M2260 160 c0 -91 3 -110 15 -110 12 0 15 19 15 110 0 91 -3 110 -15
110 -12 0 -15 -19 -15 -110z"/>
<path d="M2340 255 c0 -10 11 -15 35 -15 l35 0 0 -95 c0 -78 3 -95 15 -95 12
0 15 17 15 95 l0 95 35 0 c24 0 35 5 35 15 0 12 -16 15 -85 15 -69 0 -85 -3
-85 -15z"/>
<path d="M2558 177 c-54 -132 -52 -127 -34 -127 8 0 18 11 22 25 5 22 12 25
50 25 38 0 44 -3 50 -25 4 -15 13 -25 24 -25 16 0 13 12 -22 103 -22 56 -42
105 -46 109 -4 4 -24 -35 -44 -85z m60 -14 c11 -32 10 -33 -19 -33 -32 0 -34
3 -18 49 13 36 21 32 37 -16z"/>
<path d="M2730 160 l0 -110 65 0 c51 0 65 3 65 15 0 11 -12 15 -50 15 l-50 0
0 95 c0 78 -3 95 -15 95 -12 0 -15 -19 -15 -110z"/>
<path d="M3041 249 c-5 -13 -25 -63 -44 -111 -32 -79 -33 -88 -17 -88 11 0 20
10 24 25 6 22 12 25 51 25 39 0 45 -3 45 -20 0 -19 25 -38 35 -28 5 4 -70 206
-79 216 -3 2 -10 -6 -15 -19z m39 -106 c0 -8 -12 -13 -30 -13 -35 0 -34 -3
-14 46 l17 39 13 -30 c7 -16 13 -36 14 -42z"/>
<path d="M3180 159 l0 -112 50 5 c60 6 95 34 105 84 15 80 -32 134 -115 134
l-40 0 0 -111z m96 73 c58 -38 30 -152 -38 -152 l-28 0 0 80 0 80 28 0 c15 0
32 -4 38 -8z"/>
<path d="M3414 160 c22 -60 44 -110 47 -110 8 0 10 4 55 128 29 79 32 93 17
90 -10 -2 -26 -29 -41 -70 -14 -37 -28 -65 -32 -63 -4 3 -18 34 -31 70 -16 45
-28 65 -40 65 -14 0 -11 -16 25 -110z"/>
<path d="M3600 160 c0 -91 3 -110 15 -110 12 0 15 19 15 110 0 91 -3 110 -15
110 -12 0 -15 -19 -15 -110z"/>
<path d="M3701 251 c-12 -12 -21 -30 -21 -40 0 -20 38 -56 70 -66 49 -16 26
-69 -27 -63 -34 4 -54 -16 -27 -26 31 -12 63 -5 90 17 37 33 28 70 -25 97 -22
11 -43 24 -46 30 -12 19 17 42 47 38 22 -4 28 -1 26 11 -5 25 -63 26 -87 2z"/>
<path d="M3900 258 c-54 -29 -63 -136 -15 -184 47 -47 127 -21 145 46 12 45 0
109 -24 129 -22 19 -78 23 -106 9z m83 -33 c23 -23 30 -71 15 -101 -17 -36
-39 -48 -71 -40 -46 11 -60 101 -21 140 20 20 58 21 77 1z"/>
<path d="M4090 160 c0 -91 3 -110 15 -110 11 0 15 12 15 45 0 60 25 60 62 0
15 -25 34 -45 43 -45 21 0 19 5 -14 54 -28 41 -29 43 -10 54 13 8 19 23 19 47
0 43 -29 65 -87 65 l-43 0 0 -110z m95 45 c0 -27 -4 -30 -32 -33 -32 -3 -33
-2 -33 33 0 35 1 36 33 33 28 -3 32 -6 32 -33z"/>
<path d="M4291 251 c-12 -12 -21 -30 -21 -40 0 -20 38 -56 70 -66 49 -16 26
-69 -27 -63 -34 4 -54 -16 -27 -26 31 -12 63 -5 90 17 37 33 28 70 -25 97 -22
11 -43 24 -46 30 -12 19 17 42 47 38 22 -4 28 -1 26 11 -5 25 -63 26 -87 2z"/>
</g>
</svg>
