<?xml version="1.0" standalone="no"?>
<!DOCTYPE svg PUBLIC "-//W3C//DTD SVG 20010904//EN"
 "http://www.w3.org/TR/2001/REC-SVG-20010904/DTD/svg10.dtd">
<svg version="1.0" xmlns="http://www.w3.org/2000/svg"
 width="225.000000pt" height="225.000000pt" viewBox="0 0 225.000000 225.000000"
 preserveAspectRatio="xMidYMid meet">

<g transform="translate(0.000000,225.000000) scale(0.100000,-0.100000)"
fill="#000000" stroke="none">
<path d="M0 1125 l0 -1125 1125 0 1125 0 0 1125 0 1125 -1125 0 -1125 0 0
-1125z m797 -107 c-1 -62 -3 -14 -3 107 0 121 2 172 3 113 2 -59 2 -158 0
-220z m-372 107 l0 -140 -142 -3 -143 -3 0 146 0 146 143 -3 142 -3 0 -140z
m305 0 l0 -135 -135 0 -135 0 0 135 0 135 135 0 135 0 0 -135z m289 107 c37
-20 71 -73 71 -110 0 -40 -28 -91 -62 -112 -25 -16 -47 -20 -93 -18 l-60 3 -3
114 c-1 63 0 121 2 128 8 20 105 17 145 -5z m871 -112 c0 -109 -2 -130 -15
-130 -13 0 -15 20 -15 123 0 68 3 127 7 130 19 19 23 -4 23 -123z m90 43 l0
-87 53 52 c29 29 59 52 67 52 8 0 -5 -20 -29 -44 l-44 -45 41 -48 c25 -29 37
-50 30 -52 -7 -2 -29 15 -49 39 -32 37 -40 42 -53 31 -9 -8 -16 -26 -16 -42 0
-19 -5 -29 -15 -29 -13 0 -15 20 -15 123 0 68 3 127 7 130 18 18 23 0 23 -80z
m-815 47 c-5 -8 -11 -8 -17 -2 -6 6 -7 16 -3 22 5 8 11 8 17 2 6 -6 7 -16 3
-22z m321 19 c10 -17 -13 -36 -27 -22 -12 12 -4 33 11 33 5 0 12 -5 16 -11z
m88 -28 c0 -14 5 -21 18 -21 10 0 18 -4 18 -10 0 -5 -7 -10 -15 -10 -12 0 -15
-15 -15 -75 0 -68 2 -75 20 -75 11 0 20 -5 20 -11 0 -6 -14 -9 -32 -7 l-33 3
-3 83 c-2 64 -6 82 -17 82 -8 0 -15 5 -15 10 0 6 7 10 15 10 9 0 15 10 15 26
0 16 5 24 13 21 6 -2 12 -14 11 -26z m-404 -117 c0 -72 -3 -95 -12 -92 -9 3
-14 31 -16 83 -3 82 1 105 18 105 6 0 10 -37 10 -96z m181 86 c13 -7 19 -7 19
0 0 5 5 10 10 10 6 0 10 -44 10 -112 0 -132 -8 -148 -76 -148 -52 0 -74 8 -74
26 0 16 16 19 25 4 10 -16 72 -12 89 6 9 8 16 24 16 35 0 16 -3 18 -19 9 -32
-17 -79 -12 -100 11 -74 79 7 208 100 159z m129 -85 c0 -57 -4 -95 -10 -95 -6
0 -10 38 -10 95 0 57 4 95 10 95 6 0 10 -38 10 -95z m302 78 c14 -13 18 -31
18 -95 0 -45 -4 -78 -10 -78 -5 0 -10 5 -10 12 0 9 -3 9 -12 0 -17 -17 -78
-15 -100 5 -22 20 -23 61 -1 85 18 20 64 24 94 8 16 -9 19 -7 19 9 0 42 -48
63 -92 40 -27 -14 -38 -1 -14 17 27 19 85 18 108 -3z"/>
<path d="M900 1114 l0 -107 53 6 c41 5 58 13 80 37 39 43 38 101 -2 141 -25
24 -37 29 -80 29 l-51 0 0 -106z"/>
<path d="M1270 1140 c-40 -40 -15 -130 36 -130 49 0 64 16 64 69 0 74 -54 107
-100 61z"/>
<path d="M1694 1082 c-36 -24 -17 -72 29 -72 37 0 57 15 57 42 0 29 -57 49
-86 30z"/>
</g>
</svg>
