<?xml version="1.0" standalone="no"?>
<!DOCTYPE svg PUBLIC "-//W3C//DTD SVG 20010904//EN"
 "http://www.w3.org/TR/2001/REC-SVG-20010904/DTD/svg10.dtd">
<svg version="1.0" xmlns="http://www.w3.org/2000/svg"
 width="150.000000pt" height="52.000000pt" viewBox="0 0 150.000000 52.000000"
 preserveAspectRatio="xMidYMid meet">

<g transform="translate(0.000000,52.000000) scale(0.100000,-0.100000)"
fill="#000000" stroke="none">
<path d="M0 460 c0 -57 1 -60 25 -60 l25 0 0 -140 0 -140 -25 0 c-24 0 -25 -3
-25 -60 l0 -60 750 0 750 0 0 260 0 260 -750 0 -750 0 0 -60z m417 -307 c-1
-59 -3 -14 -3 102 0 116 2 164 3 108 2 -56 2 -151 0 -210z m-67 102 l0 -135
-135 0 -135 0 0 135 0 135 135 0 135 0 0 -135z m275 111 c70 -30 96 -122 52
-187 -26 -39 -71 -58 -139 -58 l-48 -1 0 130 0 130 50 0 c28 0 66 -6 85 -14z
m865 -116 c0 -80 -4 -130 -10 -130 -6 0 -10 50 -10 130 0 80 4 130 10 130 6 0
10 -50 10 -130z m-710 100 c0 -5 -4 -10 -10 -10 -5 0 -10 5 -10 10 0 6 5 10
10 10 6 0 10 -4 10 -10z m308 -1 c-2 -6 -8 -10 -13 -10 -5 0 -11 4 -13 10 -2
6 4 11 13 11 9 0 15 -5 13 -11z m92 -14 c0 -18 5 -25 20 -25 11 0 20 -4 20
-10 0 -5 -9 -10 -20 -10 -19 0 -21 -5 -18 -72 3 -62 6 -73 20 -73 10 0 18 -5
18 -10 0 -6 -12 -10 -27 -10 l-28 0 -3 83 c-2 64 -6 82 -17 82 -8 0 -15 5 -15
10 0 6 7 10 15 10 9 0 15 9 15 25 0 14 5 25 10 25 6 0 10 -11 10 -25z m-400
-120 c0 -57 -4 -95 -10 -95 -6 0 -10 38 -10 95 0 57 4 95 10 95 6 0 10 -38 10
-95z m181 85 c13 -7 19 -7 19 0 0 5 5 10 10 10 6 0 10 -43 10 -109 0 -106 -1
-110 -26 -130 -31 -24 -82 -27 -110 -7 -24 18 -13 31 14 17 31 -16 60 -13 82
9 26 26 27 55 3 45 -43 -19 -70 -17 -98 8 -24 20 -28 32 -28 70 0 78 61 120
124 87z m127 -82 c-4 -114 -22 -124 -26 -14 -3 84 1 106 18 106 7 0 10 -32 8
-92z m296 76 c12 -11 16 -36 16 -95 0 -46 -4 -79 -10 -79 -5 0 -10 4 -10 9 0
5 -12 5 -28 -1 -63 -24 -116 24 -90 80 10 21 21 28 51 30 21 2 45 -2 53 -9 11
-9 14 -7 14 13 0 13 -5 29 -12 36 -15 15 -61 15 -76 0 -17 -17 -28 -2 -12 17
16 20 84 20 104 -1z"/>
<path d="M520 250 l0 -100 49 0 c67 0 101 33 101 100 0 67 -34 100 -101 100
l-49 0 0 -100z"/>
<path d="M876 268 c-22 -31 -20 -84 4 -108 24 -24 48 -25 78 -4 29 20 31 93 4
117 -26 24 -68 21 -86 -5z"/>
<path d="M1292 208 c-30 -30 -3 -72 44 -66 34 4 53 31 38 56 -13 21 -64 28
-82 10z"/>
</g>
</svg>
