<?xml version="1.0" standalone="no"?>
<!DOCTYPE svg PUBLIC "-//W3C//DTD SVG 20010904//EN"
 "http://www.w3.org/TR/2001/REC-SVG-20010904/DTD/svg10.dtd">
<svg version="1.0" xmlns="http://www.w3.org/2000/svg"
 width="300.000000pt" height="148.000000pt" viewBox="0 0 300.000000 148.000000"
 preserveAspectRatio="xMidYMid meet">

<g transform="translate(0.000000,148.000000) scale(0.100000,-0.100000)"
fill="#000000" stroke="none">
<path d="M2100 1463 c-129 -20 -419 -97 -408 -108 2 -2 26 2 53 11 195 59 493
89 644 65 179 -28 260 -107 261 -250 0 -49 -78 -536 -104 -654 -4 -16 1 -18
37 -15 l41 3 22 123 c12 67 24 125 27 128 3 3 38 -53 79 -125 l73 -130 48 -1
49 0 -20 33 c-11 17 -50 79 -85 137 l-65 105 121 123 122 122 -46 0 c-45 0
-46 -1 -154 -116 -60 -64 -111 -112 -113 -105 -2 6 11 93 29 193 28 162 31
189 21 237 -23 109 -97 175 -237 211 -62 16 -108 20 -224 19 -80 -1 -157 -4
-171 -6z"/>
<path d="M1390 1238 c-19 -12 -36 -23 -38 -24 -1 -1 -30 -154 -63 -339 -47
-267 -57 -340 -47 -347 25 -16 83 -28 134 -28 139 0 237 86 279 245 50 193
-38 320 -197 285 -28 -6 -53 -8 -56 -6 -4 4 18 142 33 214 7 27 -1 27 -45 0z
m139 -262 c53 -28 70 -106 47 -216 -30 -139 -106 -217 -204 -207 -24 3 -46 7
-49 10 -7 7 56 375 68 399 15 28 94 36 138 14z"/>
<path d="M182 1161 c-16 -10 -26 -56 -82 -379 -34 -195 -40 -245 -30 -257 19
-23 305 -22 314 1 16 42 11 44 -114 44 -66 0 -120 1 -120 3 0 1 9 54 20 117
11 63 20 118 20 123 0 4 45 7 99 7 81 0 100 3 105 16 16 41 10 44 -89 44 l-95
0 1 28 c0 15 8 68 17 117 l17 90 113 3 c112 3 112 3 112 27 l0 25 -137 0 c-76
0 -144 -4 -151 -9z"/>
<path d="M603 1015 c-95 -43 -152 -152 -160 -300 -4 -81 -2 -95 19 -134 40
-75 127 -101 216 -66 34 14 38 20 34 41 -3 19 -9 23 -21 18 -9 -3 -35 -9 -58
-11 -37 -5 -46 -2 -72 24 -37 37 -47 96 -31 183 16 89 40 139 85 178 33 30 43
33 84 30 25 -3 53 -8 62 -12 11 -5 19 1 27 19 11 24 10 27 -23 41 -50 20 -103
17 -162 -11z"/>
<path d="M951 1013 c-98 -51 -154 -166 -155 -318 -1 -134 49 -195 161 -195
138 1 238 127 250 317 10 145 -33 210 -145 220 -49 4 -65 1 -111 -24z m154
-54 c17 -17 20 -33 20 -107 0 -115 -26 -202 -76 -254 -34 -36 -41 -39 -85 -36
-38 2 -51 8 -68 31 -41 56 -18 240 40 330 43 66 122 83 169 36z"/>
<path d="M1839 1025 c-62 -17 -67 -21 -62 -49 5 -23 6 -24 39 -10 45 19 144
18 172 -2 18 -12 22 -25 22 -64 0 -54 0 -54 -83 -65 -109 -15 -195 -62 -227
-125 -22 -43 -27 -119 -9 -152 17 -32 86 -58 159 -58 55 0 163 20 176 32 7 7
64 348 64 382 0 53 -19 84 -65 106 -47 23 -116 25 -186 5z m157 -242 c-3 -10
-12 -61 -21 -113 -10 -62 -22 -99 -32 -107 -28 -21 -126 -16 -157 8 -44 35
-32 123 23 173 27 24 116 55 159 56 27 0 32 -3 28 -17z"/>
<path d="M2275 1030 c-96 -20 -87 -3 -129 -247 -21 -120 -40 -230 -43 -245 -5
-27 -4 -28 36 -28 34 0 41 4 46 23 2 12 21 114 41 227 19 113 41 208 47 212 6
4 32 10 58 13 60 8 116 -13 125 -49 5 -22 -45 -350 -62 -408 -5 -15 1 -18 38
-18 l44 0 32 188 c39 226 40 260 8 295 -40 43 -137 58 -241 37z"/>
<path d="M165 258 c-2 -7 -11 -53 -20 -103 -8 -50 -18 -102 -21 -118 -4 -19
-2 -27 8 -27 10 0 19 24 29 78 14 76 15 77 44 77 28 0 30 -2 30 -40 0 -22 -4
-57 -8 -78 -6 -29 -5 -37 6 -37 10 0 18 24 27 76 13 72 12 78 -6 91 -11 9 -30
12 -48 9 l-28 -6 6 45 c5 30 4 45 -4 45 -6 0 -13 -6 -15 -12z"/>
<path d="M1415 245 c-14 -13 -25 -31 -25 -40 0 -8 -3 -15 -8 -15 -4 0 -7 -19
-7 -42 0 -24 -4 -64 -8 -91 -7 -39 -6 -47 7 -47 9 0 16 8 16 17 0 50 23 143
36 143 8 0 14 5 14 10 0 6 -4 10 -10 10 -18 0 -10 40 10 52 11 7 20 16 20 20
0 15 -21 8 -45 -17z"/>
<path d="M2760 268 c0 -2 -11 -60 -23 -130 -19 -101 -21 -128 -10 -128 7 0 15
17 19 40 4 22 10 40 13 40 4 0 17 -18 30 -40 12 -22 29 -40 37 -40 11 0 9 10
-11 43 -14 24 -25 47 -25 50 0 4 16 25 36 47 48 53 31 51 -24 -2 l-45 -43 6
31 c16 87 19 134 8 134 -6 0 -11 -1 -11 -2z"/>
<path d="M1600 234 c0 -17 22 -14 28 4 2 7 -3 12 -12 12 -9 0 -16 -7 -16 -16z"/>
<path d="M5 230 c-3 -5 2 -10 13 -10 10 0 21 -2 24 -5 3 -3 -3 -47 -13 -98
-22 -114 -22 -107 -5 -107 10 0 19 30 33 103 16 91 21 102 41 105 12 2 22 8
22 13 0 12 -107 12 -115 -1z"/>
<path d="M613 232 c-6 -4 -19 -48 -28 -97 -9 -50 -19 -98 -21 -107 -3 -11 0
-18 9 -18 15 0 27 29 27 68 0 17 6 22 25 22 33 0 81 25 89 45 13 34 6 74 -13
85 -23 12 -71 13 -88 2z m75 -24 c30 -30 -6 -88 -53 -88 -24 0 -26 2 -20 38 4
20 8 43 10 50 5 15 47 16 63 0z"/>
<path d="M1234 188 c-14 -29 -42 -81 -61 -115 -24 -44 -31 -63 -21 -63 8 0 22
16 31 35 15 31 21 35 56 35 38 0 40 -2 47 -35 4 -21 12 -35 21 -35 10 0 12 8
8 33 -3 17 -12 68 -18 111 -7 44 -18 81 -24 83 -7 3 -24 -20 -39 -49z m40 -90
c-6 -9 -48 -11 -57 -2 -3 4 6 30 20 58 l27 51 7 -49 c5 -28 6 -53 3 -58z"/>
<path d="M2252 231 c-13 -8 -54 -206 -44 -216 13 -13 101 -4 120 13 31 26 36
58 14 80 -18 18 -18 19 5 46 28 33 29 40 3 66 -21 21 -74 27 -98 11z m85 -27
c3 -8 1 -26 -5 -40 -9 -19 -19 -24 -48 -24 -29 0 -35 3 -30 16 3 9 6 27 6 40
0 21 5 24 35 24 23 0 38 -6 42 -16z m-17 -99 c26 -31 -27 -94 -69 -80 -20 6
-21 31 -5 83 5 17 59 15 74 -3z"/>
<path d="M328 165 c-35 -34 -46 -97 -24 -130 13 -20 25 -25 56 -25 21 0 42 4
45 10 3 5 -8 9 -28 8 -43 -1 -57 7 -57 37 0 21 6 24 54 30 61 8 73 22 53 63
-18 38 -65 42 -99 7z m80 -23 c4 -23 -2 -27 -55 -36 -38 -6 -42 6 -17 42 21
31 68 27 72 -6z"/>
<path d="M773 183 c-25 -9 -13 -18 24 -18 31 0 38 -4 38 -20 0 -12 -8 -21 -20
-23 -67 -11 -106 -53 -85 -93 15 -27 95 -27 109 0 18 33 25 129 11 146 -12 14
-52 19 -77 8z m57 -92 c0 -35 -19 -71 -37 -71 -69 1 -45 86 25 89 6 1 12 -8
12 -18z"/>
<path d="M929 183 c-12 -3 -20 -27 -31 -86 -8 -45 -10 -84 -5 -86 14 -5 17 4
30 80 12 70 14 74 41 77 43 5 48 -7 33 -86 -11 -57 -11 -72 -2 -72 24 0 45
141 25 165 -12 14 -55 18 -91 8z"/>
<path d="M1493 182 c-7 -5 -18 -35 -23 -68 -6 -32 -13 -69 -15 -82 -4 -14 -1
-22 8 -22 9 0 18 26 28 78 12 67 17 77 37 80 12 2 22 8 22 13 0 11 -40 12 -57
1z"/>
<path d="M1590 188 c0 -1 -7 -41 -15 -88 -8 -47 -15 -86 -15 -87 0 -2 6 -3 14
-3 9 0 17 25 26 80 7 44 12 83 12 87 0 7 -22 18 -22 11z"/>
<path d="M1675 166 c-28 -28 -42 -88 -29 -125 8 -21 17 -27 47 -29 42 -4 51
15 10 20 -24 3 -28 8 -31 40 -5 55 21 98 59 98 18 0 28 4 24 10 -11 18 -55 10
-80 -14z"/>
<path d="M1813 183 c-25 -9 -13 -18 24 -18 31 0 38 -4 38 -19 0 -14 -11 -22
-39 -30 -51 -14 -83 -55 -67 -85 9 -16 21 -21 55 -21 25 0 48 6 55 14 6 7 14
44 18 81 5 52 3 69 -8 76 -15 9 -56 11 -76 2z m57 -92 c0 -35 -19 -71 -37 -71
-69 1 -45 86 25 89 6 1 12 -8 12 -18z"/>
<path d="M1969 183 c-21 -5 -52 -173 -33 -173 14 0 20 15 29 80 11 78 14 81
48 78 35 -3 35 -3 22 -100 -5 -38 -4 -58 3 -58 14 0 21 21 28 96 5 51 4 68 -7
75 -14 9 -61 10 -90 2z"/>
<path d="M2420 180 c-17 -11 -9 -13 34 -10 30 2 48 -14 39 -37 -3 -7 -14 -13
-25 -13 -33 0 -77 -29 -84 -55 -9 -37 11 -55 62 -55 51 0 56 8 69 98 5 36 3
57 -5 67 -14 17 -67 20 -90 5z m64 -107 c-8 -47 -16 -56 -45 -51 -34 4 -38 50
-7 72 12 9 31 16 41 16 15 0 17 -5 11 -37z"/>
<path d="M2589 183 c-12 -3 -20 -27 -31 -86 -8 -45 -10 -84 -5 -86 13 -5 16 2
28 65 16 91 17 94 49 94 16 0 31 -4 34 -9 3 -4 -1 -40 -8 -80 -11 -58 -11 -71
-1 -71 8 0 18 21 24 50 14 66 14 103 -1 118 -12 12 -56 14 -89 5z"/>
</g>
</svg>
