<?xml version="1.0" standalone="no"?>
<!DOCTYPE svg PUBLIC "-//W3C//DTD SVG 20010904//EN"
 "http://www.w3.org/TR/2001/REC-SVG-20010904/DTD/svg10.dtd">
<svg version="1.0" xmlns="http://www.w3.org/2000/svg"
 width="720.000000pt" height="259.000000pt" viewBox="0 0 720.000000 259.000000"
 preserveAspectRatio="xMidYMid meet">

<g transform="translate(0.000000,259.000000) scale(0.100000,-0.100000)"
fill="#000000" stroke="none">
<path d="M1365 2101 c-190 -34 -379 -94 -447 -142 -43 -31 -51 -80 -45 -269 6
-181 22 -287 68 -457 32 -117 57 -158 90 -148 41 13 456 258 486 287 18 17 43
52 55 77 22 45 23 54 23 344 0 284 -1 299 -19 313 -26 18 -87 17 -211 -5z"/>
<path d="M1711 2101 c-20 -20 -21 -28 -21 -304 0 -315 5 -345 63 -411 39 -44
492 -308 522 -304 16 2 27 26 57 113 52 157 83 355 83 535 0 187 -7 208 -83
248 -111 59 -361 125 -525 138 -67 6 -76 5 -96 -15z"/>
<path d="M2820 1480 l0 -420 105 0 105 0 2 168 3 167 172 3 173 2 2 -167 3
-168 108 -3 107 -3 0 421 0 420 -110 0 -110 0 0 -155 0 -155 -175 0 -175 0 0
155 0 155 -105 0 -105 0 0 -420z"/>
<path d="M3966 1867 c-33 -80 -296 -786 -296 -796 0 -7 40 -11 118 -11 l117 0
21 58 20 57 169 0 168 0 20 -57 19 -58 119 0 c65 0 119 4 119 9 0 9 -194 525
-277 739 l-36 92 -134 0 -133 0 -14 -33z m199 -332 c26 -77 50 -146 52 -152 4
-10 -20 -13 -101 -13 -58 0 -106 3 -106 6 0 7 58 182 87 262 8 24 16 42 18 40
1 -2 24 -66 50 -143z"/>
<path d="M4580 1642 c0 -281 8 -352 48 -426 58 -107 155 -156 322 -164 214 -9
351 64 405 217 12 35 15 98 15 337 l0 294 -105 0 -105 0 0 -263 c0 -253 -1
-264 -22 -307 -34 -65 -66 -84 -151 -88 -62 -3 -77 -1 -106 20 -77 52 -76 47
-79 359 l-3 279 -110 0 -109 0 0 -258z"/>
<path d="M5530 1479 l0 -421 233 4 c261 5 293 11 395 77 121 79 178 200 170
364 -6 122 -33 191 -102 261 -108 111 -197 136 -488 136 l-208 0 0 -421z m455
212 c111 -51 158 -192 104 -311 -27 -60 -45 -79 -104 -106 -42 -20 -66 -24
-147 -24 l-98 0 0 230 0 230 103 0 c78 0 111 -5 142 -19z"/>
<path d="M1560 1276 c-54 -21 -473 -265 -488 -284 -7 -10 -10 -28 -7 -42 11
-42 95 -150 190 -245 142 -142 298 -235 393 -235 91 1 232 88 383 239 166 166
217 253 172 293 -18 16 -275 166 -411 241 -84 45 -169 57 -232 33z"/>
<path d="M2832 824 c-15 -10 -22 -25 -22 -49 0 -39 20 -57 86 -74 48 -13 64
-39 38 -58 -24 -17 -49 -16 -86 3 -23 12 -33 13 -42 4 -20 -21 29 -50 86 -50
39 0 54 5 73 25 47 47 23 92 -62 120 -54 17 -65 33 -38 55 12 10 24 10 56 1
57 -17 84 4 34 27 -36 17 -97 15 -123 -4z"/>
<path d="M3030 820 c0 -16 7 -20 35 -20 l35 0 0 -100 c0 -93 1 -100 20 -100
19 0 20 7 20 100 l0 100 35 0 c28 0 35 4 35 20 0 19 -7 20 -90 20 -83 0 -90
-1 -90 -20z"/>
<path d="M3272 730 c-23 -60 -42 -114 -42 -120 0 -21 37 -9 48 15 10 22 18 25
65 25 48 0 55 -3 65 -25 14 -30 59 -37 48 -7 -73 193 -88 222 -115 222 -24 0
-29 -8 -69 -110z m91 13 c9 -27 17 -51 17 -55 0 -5 -18 -8 -41 -8 -31 0 -40 3
-36 14 3 8 11 32 18 55 7 23 15 41 19 41 3 0 14 -21 23 -47z"/>
<path d="M3502 778 c34 -50 44 -75 48 -118 4 -42 9 -56 23 -58 14 -3 17 4 17
45 0 41 7 59 45 115 25 37 45 70 45 73 0 3 -9 5 -20 5 -14 0 -31 -16 -52 -50
-17 -27 -32 -50 -33 -50 -2 0 -17 23 -35 50 -24 38 -38 50 -56 50 -24 0 -24
-1 18 -62z"/>
<path d="M3960 720 c0 -113 1 -120 20 -120 19 0 20 7 20 120 0 113 -1 120 -20
120 -19 0 -20 -7 -20 -120z"/>
<path d="M4070 720 c0 -113 1 -120 20 -120 18 0 20 7 20 87 l0 87 63 -87 c46
-65 67 -86 82 -85 19 3 20 12 23 121 2 111 2 117 -17 117 -18 0 -20 -8 -23
-82 l-3 -83 -60 82 c-43 59 -66 82 -82 82 -23 1 -23 -1 -23 -119z"/>
<path d="M4608 817 c-47 -39 -60 -93 -38 -151 23 -61 131 -87 185 -44 25 20
26 22 10 34 -14 11 -22 10 -44 -7 -34 -25 -73 -18 -101 18 -38 48 -13 123 45
137 16 4 40 0 61 -10 47 -22 67 -5 28 25 -37 29 -110 29 -146 -2z"/>
<path d="M4882 827 c-37 -21 -54 -55 -55 -109 -1 -46 3 -54 36 -84 96 -88 236
1 198 125 -15 52 -56 81 -113 81 -23 -1 -53 -6 -66 -13z m114 -40 c61 -53 16
-168 -60 -153 -41 8 -66 40 -66 83 0 43 15 72 43 83 36 14 54 11 83 -13z"/>
<path d="M5130 720 c0 -113 1 -120 20 -120 17 0 19 8 22 83 l3 82 63 -82 c41
-54 70 -83 82 -83 19 0 20 8 20 120 0 113 -1 120 -20 120 -18 0 -20 -7 -20
-75 0 -41 -4 -75 -9 -75 -5 0 -33 34 -63 75 -39 55 -59 75 -75 75 -23 0 -23
-2 -23 -120z"/>
<path d="M5392 823 c2 -13 14 -19 41 -21 l37 -3 0 -100 c0 -92 1 -99 20 -99
19 0 20 7 20 100 l0 100 35 0 c28 0 35 4 35 20 0 19 -7 20 -96 20 -86 0 -95
-2 -92 -17z"/>
<path d="M5640 719 c0 -109 2 -120 18 -117 12 2 18 15 20 46 3 38 6 43 25 40
13 -2 31 -19 45 -45 18 -33 29 -43 49 -43 24 0 24 1 11 23 -43 65 -42 62 -14
90 33 33 33 71 1 102 -21 22 -33 25 -90 25 l-65 0 0 -121z m129 67 c22 -27 -4
-56 -49 -56 -39 0 -40 1 -40 35 0 34 1 35 39 35 21 0 44 -6 50 -14z"/>
<path d="M5922 824 c-49 -34 -66 -109 -37 -164 32 -62 129 -80 184 -34 65 55
57 164 -16 202 -31 17 -105 15 -131 -4z m131 -45 c24 -29 22 -94 -3 -119 -59
-59 -151 -9 -136 75 13 70 95 96 139 44z"/>
<path d="M6180 720 l0 -120 70 0 c63 0 70 2 70 20 0 17 -7 20 -50 20 l-50 0 0
100 c0 93 -1 100 -20 100 -19 0 -20 -7 -20 -120z"/>
</g>
</svg>
