<?xml version="1.0" encoding="UTF-8"?>
<svg version="1.1" xmlns="http://www.w3.org/2000/svg" width="550" height="309">
<path d="M0 0 C181.5 0 363 0 550 0 C550 101.97 550 203.94 550 309 C368.5 309 187 309 0 309 C0 207.03 0 105.06 0 0 Z " fill="#FECA05" transform="translate(0,0)"/>
<path d="M0 0 C1.36804187 0.00097093 2.73608389 0.0017422 4.10412598 0.00231934 C37.12017806 0.04715855 69.18298205 3.67051904 100.8125 13.5 C101.58964355 13.74089355 102.36678711 13.98178711 103.16748047 14.22998047 C130.83899542 22.89158367 165.45922317 36.19948161 179.8125 63.5 C180.51072617 65.15369357 181.18748605 66.81727014 181.8125 68.5 C182.4725 69.49 183.1325 70.48 183.8125 71.5 C187.08069527 84.57278109 183.4257005 96.30686978 176.93554688 107.70996094 C171.52161931 116.3392907 163.6707648 122.75266374 155.46875 128.59765625 C153.35755516 130.10964432 151.4288339 131.64623132 149.5 133.375 C146.41656196 135.81306729 143.46035433 137.05343707 139.8125 138.5 C138.59778571 139.09123262 137.38971095 139.69624061 136.1875 140.3125 C134.73030244 141.0439338 133.27179529 141.77276043 131.8125 142.5 C130.78382813 143.01304687 129.75515625 143.52609375 128.6953125 144.0546875 C122.64257136 146.97621844 117.56329532 149.23526293 110.8125 149.5 C110.8125 150.16 110.8125 150.82 110.8125 151.5 C75.03603775 160.78209186 41.116192 166.88936822 3.98779297 166.76074219 C0.31591288 166.75000998 -3.3554782 166.76071685 -7.02734375 166.7734375 C-25.60981769 166.78526713 -43.91596378 166.05237688 -62.1875 162.5 C-63.10610306 162.32482849 -64.02470612 162.14965698 -64.97114563 161.96917725 C-67.48274209 161.48911255 -69.99148415 160.99589194 -72.5 160.5 C-73.35400391 160.335 -74.20800781 160.17 -75.08789062 160 C-79.59545532 159.107551 -83.83218143 157.98341913 -88.1875 156.5 C-90.02125236 156.0942848 -91.8553996 155.68988031 -93.69433594 155.30834961 C-101.53604325 153.6552581 -108.95283146 151.29880534 -116.4375 148.4375 C-117.33025635 148.09702637 -118.2230127 147.75655273 -119.14282227 147.40576172 C-123.41047068 145.73321142 -127.30619461 143.96477058 -131.1875 141.5 C-132.51043594 140.91346395 -133.84405495 140.3504028 -135.1875 139.8125 C-155.3683133 130.92492328 -172.3836952 115.87451967 -181.1875 95.5 C-184.22166403 86.39750791 -182.69780346 74.2639791 -179.1875 65.5 C-170.82638593 49.95539357 -157.22616323 39.6380557 -142.4375 30.625 C-141.83599121 30.25568359 -141.23448242 29.88636719 -140.61474609 29.50585938 C-136.29973293 26.9444468 -131.9108373 25.16563807 -127.1875 23.5 C-125.64327925 22.88133743 -124.10120093 22.2572662 -122.5625 21.625 C-116.17273622 19.05733419 -109.68858801 16.76815737 -103.1875 14.5 C-102.15109375 14.13648437 -101.1146875 13.77296875 -100.046875 13.3984375 C-89.35864928 9.73310355 -78.59717937 7.2258744 -67.4375 5.5 C-66.50035156 5.34789063 -65.56320313 5.19578125 -64.59765625 5.0390625 C-61.8357332 4.60315744 -59.07119332 4.19537283 -56.30264282 3.80395508 C-54.7816038 3.58537526 -53.26167499 3.35901787 -51.74252319 3.12768555 C-34.47255931 0.52197057 -17.44930695 -0.05713032 0 0 Z " fill="#FCC906" transform="translate(274.1875,71.5)"/>
<path d="M0 0 C1.36804187 0.00097093 2.73608389 0.0017422 4.10412598 0.00231934 C37.12017806 0.04715855 69.18298205 3.67051904 100.8125 13.5 C101.58964355 13.74089355 102.36678711 13.98178711 103.16748047 14.22998047 C130.83899542 22.89158367 165.45922317 36.19948161 179.8125 63.5 C180.51072617 65.15369357 181.18748605 66.81727014 181.8125 68.5 C182.4725 69.49 183.1325 70.48 183.8125 71.5 C187.08069527 84.57278109 183.4257005 96.30686978 176.93554688 107.70996094 C171.52161931 116.3392907 163.6707648 122.75266374 155.46875 128.59765625 C153.35755516 130.10964432 151.4288339 131.64623132 149.5 133.375 C146.41656196 135.81306729 143.46035433 137.05343707 139.8125 138.5 C138.59778571 139.09123262 137.38971095 139.69624061 136.1875 140.3125 C134.73030244 141.0439338 133.27179529 141.77276043 131.8125 142.5 C130.78382813 143.01304687 129.75515625 143.52609375 128.6953125 144.0546875 C122.64257136 146.97621844 117.56329532 149.23526293 110.8125 149.5 C110.8125 150.16 110.8125 150.82 110.8125 151.5 C75.03603775 160.78209186 41.116192 166.88936822 3.98779297 166.76074219 C0.31591288 166.75000998 -3.3554782 166.76071685 -7.02734375 166.7734375 C-25.60981769 166.78526713 -43.91596378 166.05237688 -62.1875 162.5 C-63.10610306 162.32482849 -64.02470612 162.14965698 -64.97114563 161.96917725 C-67.48274209 161.48911255 -69.99148415 160.99589194 -72.5 160.5 C-73.35400391 160.335 -74.20800781 160.17 -75.08789062 160 C-79.59545532 159.107551 -83.83218143 157.98341913 -88.1875 156.5 C-90.02125236 156.0942848 -91.8553996 155.68988031 -93.69433594 155.30834961 C-101.53604325 153.6552581 -108.95283146 151.29880534 -116.4375 148.4375 C-117.33025635 148.09702637 -118.2230127 147.75655273 -119.14282227 147.40576172 C-123.41047068 145.73321142 -127.30619461 143.96477058 -131.1875 141.5 C-132.51043594 140.91346395 -133.84405495 140.3504028 -135.1875 139.8125 C-155.3683133 130.92492328 -172.3836952 115.87451967 -181.1875 95.5 C-184.22166403 86.39750791 -182.69780346 74.2639791 -179.1875 65.5 C-170.82638593 49.95539357 -157.22616323 39.6380557 -142.4375 30.625 C-141.83599121 30.25568359 -141.23448242 29.88636719 -140.61474609 29.50585938 C-136.29973293 26.9444468 -131.9108373 25.16563807 -127.1875 23.5 C-125.64327925 22.88133743 -124.10120093 22.2572662 -122.5625 21.625 C-116.17273622 19.05733419 -109.68858801 16.76815737 -103.1875 14.5 C-102.15109375 14.13648437 -101.1146875 13.77296875 -100.046875 13.3984375 C-89.35864928 9.73310355 -78.59717937 7.2258744 -67.4375 5.5 C-66.50035156 5.34789063 -65.56320313 5.19578125 -64.59765625 5.0390625 C-61.8357332 4.60315744 -59.07119332 4.19537283 -56.30264282 3.80395508 C-54.7816038 3.58537526 -53.26167499 3.35901787 -51.74252319 3.12768555 C-34.47255931 0.52197057 -17.44930695 -0.05713032 0 0 Z M-75.171875 20.81640625 C-78.0230119 21.46271319 -80.86969701 22.00211906 -83.75 22.5 C-93.32297165 24.19753276 -102.25594128 26.66444443 -111.1875 30.5 C-113.24964062 31.35503392 -115.31215246 32.209173 -117.375 33.0625 C-118.89287109 33.70058594 -118.89287109 33.70058594 -120.44140625 34.3515625 C-122.55590704 35.23586297 -124.68194052 36.09262296 -126.8125 36.9375 C-131.4931852 39.10448389 -135.80338681 41.79340922 -140.1875 44.5 C-140.97125 44.9434375 -141.755 45.386875 -142.5625 45.84375 C-154.10251318 53.12494879 -164.54454979 62.99280561 -168.1875 76.5 C-168.94474845 84.26378941 -169.71274488 92.34032986 -164.6640625 98.78515625 C-164.17679688 99.35105469 -163.68953125 99.91695313 -163.1875 100.5 C-162.27032434 101.81214437 -161.35367514 103.12465685 -160.4375 104.4375 C-153.87652091 112.95174767 -146.50617278 119.19024863 -137.1875 124.5 C-136.61193359 124.82887207 -136.03636719 125.15774414 -135.44335938 125.49658203 C-126.95336108 130.30441653 -118.41780029 134.28038335 -109.1875 137.5 C-107.50140625 138.11294922 -107.50140625 138.11294922 -105.78125 138.73828125 C-94.29782636 142.76996151 -82.50912583 145.48830437 -70.62402344 148.05322266 C-69.41407715 148.31498291 -69.41407715 148.31498291 -68.1796875 148.58203125 C-67.45894043 148.73518799 -66.73819336 148.88834473 -65.99560547 149.04614258 C-64.1875 149.5 -64.1875 149.5 -62.1875 150.5 C-41.29752479 153.66478654 -20.01078521 153.80375419 1.0625 153.8125 C2.21793304 153.81581329 3.37336609 153.81912659 4.56381226 153.82254028 C25.84788615 153.85859611 46.93705935 152.89005574 67.8125 148.5 C68.64571777 148.32597656 69.47893555 148.15195313 70.33740234 147.97265625 C80.68555681 145.78097117 90.94058102 143.29674741 101.125 140.4375 C101.96579102 140.20442139 102.80658203 139.97134277 103.67285156 139.73120117 C108.5725898 138.31804137 113.15373671 136.56756826 117.78295898 134.43041992 C120.37708695 133.24117155 123.0288791 132.22308179 125.6875 131.1875 C131.88522614 128.6202081 137.27132388 125.24966805 142.8125 121.5 C143.61816406 120.98179687 144.42382812 120.46359375 145.25390625 119.9296875 C156.69321241 112.53575357 166.45214782 103.23966482 169.8125 89.5 C171.0810292 78.89404968 168.99244599 70.64285845 162.8125 62 C154.99489193 52.5889941 141.35928789 40.74489097 128.8125 38.5 C128.8125 37.84 128.8125 37.18 128.8125 36.5 C126.66711952 35.72790717 124.52116987 34.95739586 122.375 34.1875 C120.58255859 33.54361328 120.58255859 33.54361328 118.75390625 32.88671875 C114.46037768 31.36278619 110.13872611 29.92794491 105.8125 28.5 C105.08506592 28.25741455 104.35763184 28.0148291 103.6081543 27.76489258 C93.04592738 24.25822855 82.5112012 21.0984079 71.56787109 19.03271484 C69.63670058 18.65934837 67.71013445 18.26173245 65.78759766 17.84619141 C45.51837336 13.53556904 25.4000063 13.03422222 4.75 13.0625 C3.45033295 13.06245972 2.15066589 13.06241943 0.81161499 13.06237793 C-25.13998042 13.10901998 -49.89214352 14.80780012 -75.171875 20.81640625 Z " fill="#0C0803" transform="translate(274.1875,71.5)"/>
<path d="M0 0 C4.95 0 9.9 0 15 0 C15 18.48 15 36.96 15 56 C10.05 56 5.1 56 0 56 C-0.33 46.43 -0.66 36.86 -1 27 C-5.87145721 33.27418411 -5.87145721 33.27418411 -10 40 C-13.96151293 40.94895557 -17.07017536 41.17352354 -21 40 C-25.28127831 36.0846548 -27.98706482 30.89056145 -31 26 C-31.33 35.57 -31.66 45.14 -32 55 C-36.62 55 -41.24 55 -46 55 C-46 37.18 -46 19.36 -46 1 C-31 1 -31 1 -27.7421875 3.37890625 C-26.81792969 4.95478516 -26.81792969 4.95478516 -25.875 6.5625 C-25.19308594 7.65433594 -24.51117188 8.74617187 -23.80859375 9.87109375 C-23.21175781 10.90363281 -22.61492187 11.93617188 -22 13 C-20.99655621 14.38774142 -19.9792696 15.76579369 -18.9375 17.125 C-17 20 -17 20 -17 22 C-12.8877089 18.28599375 -9.94397329 13.84161517 -6.8125 9.3125 C-5.73644819 7.76639013 -4.65966439 6.22078936 -3.58203125 4.67578125 C-3.10999268 3.99427002 -2.6379541 3.31275879 -2.15161133 2.6105957 C-1 1 -1 1 0 0 Z " fill="#060402" transform="translate(230,127)"/>
<path d="M0 0 C15 0 15 0 20.3125 5.1875 C21.66992188 6.94262695 21.66992188 6.94262695 22.65625 8.48828125 C24.64712441 11.50243137 26.77647713 14.35662471 29.00268555 17.20043945 C30.24260665 18.78564334 31.45991942 20.38845569 32.67578125 21.9921875 C35.04201958 25.05437829 37.52255285 28.02706342 40 31 C40.33 21.1 40.66 11.2 41 1 C45.62 1 50.24 1 55 1 C55 18.82 55 36.64 55 55 C40 55 40 55 36.48046875 52.61328125 C35.27709961 51.03686523 35.27709961 51.03686523 34.1875 49.3125 C33.76283447 48.73250244 33.33816895 48.15250488 32.90063477 47.55493164 C32.01551265 46.34170814 31.14948831 45.11432992 30.30273438 43.87402344 C28.98940882 41.98476426 27.6040114 40.18329674 26.171875 38.3828125 C18.84718115 29.16364615 18.84718115 29.16364615 17 25 C16.34 25 15.68 25 15 25 C15 35.23 15 45.46 15 56 C10.05 56 5.1 56 0 56 C0 37.52 0 19.04 0 0 Z " fill="#060402" transform="translate(311,127)"/>
<path d="M0 0 C17.16 0 34.32 0 52 0 C52 4.62 52 9.24 52 14 C45.73 14 39.46 14 33 14 C33 27.86 33 41.72 33 56 C28.05 56 23.1 56 18 56 C18 42.14 18 28.28 18 14 C12.06 14 6.12 14 0 14 C0 9.38 0 4.76 0 0 Z " fill="#140E04" transform="translate(252,127)"/>
<path d="M0 0 C0.66 0.66 1.32 1.32 2 2 C1.67 2.66 1.34 3.32 1 4 C0.01 4 -0.98 4 -2 4 C-1.98839844 5.05960937 -1.97679687 6.11921875 -1.96484375 7.2109375 C-1.95546524 8.59895658 -1.94636511 9.98697755 -1.9375 11.375 C-1.92912109 12.07367188 -1.92074219 12.77234375 -1.91210938 13.4921875 C-1.88671875 18.7734375 -1.88671875 18.7734375 -3 21 C-8.94 21 -14.88 21 -21 21 C-21 34.2 -21 47.4 -21 61 C-21.99 61.495 -21.99 61.495 -23 62 C-23 48.14 -23 34.28 -23 20 C-16.73 20 -10.46 20 -4 20 C-4 15.38 -4 10.76 -4 6 C-21.16 6 -38.32 6 -56 6 C-56 5.34 -56 4.68 -56 4 C-55.40166855 3.99413376 -54.8033371 3.98826752 -54.18687439 3.98222351 C-47.94076396 3.91812533 -41.69516095 3.8336635 -35.44946289 3.73754883 C-33.12075505 3.70436252 -30.79196798 3.67631112 -28.46313477 3.65356445 C-25.10919543 3.61990331 -21.75597794 3.56758001 -18.40234375 3.51171875 C-17.36665756 3.50532883 -16.33097137 3.4989389 -15.26390076 3.49235535 C-9.41782623 3.37433441 -5.1934376 2.7352317 0 0 Z " fill="#DDB923" transform="translate(308,121)"/>
<path d="M0 0 C7.75 -0.125 7.75 -0.125 10 1 C11.39988706 1.13902129 12.80528034 1.22522635 14.2109375 1.28125 C15.46003906 1.33732422 15.46003906 1.33732422 16.734375 1.39453125 C17.60578125 1.42933594 18.4771875 1.46414062 19.375 1.5 C21.09130115 1.56916437 22.80746085 1.64195475 24.5234375 1.71875 C25.28575684 1.74904297 26.04807617 1.77933594 26.83349609 1.81054688 C29 2 29 2 30.83050537 2.49220276 C35.16824169 3.50750397 39.67999893 3.39765977 44.1171875 3.55859375 C45.25477509 3.60084579 46.39236267 3.64309784 47.56442261 3.68663025 C62.01285371 4.16859172 76.46245276 4.11349491 90.91680908 4.06866455 C94.66588753 4.05819834 98.41497348 4.05381854 102.1640625 4.04882812 C109.44272773 4.03829179 116.7213576 4.02136303 124 4 C124 4.33 124 4.66 124 5 C107.3921605 6.75876521 90.94483661 7.36167178 74.25 7.3125 C73.05997375 7.31167419 71.86994751 7.31084839 70.64385986 7.30999756 C55.50906034 7.28592379 40.45463183 6.96577434 25.375 5.625 C24.65461548 5.56196686 23.93423096 5.49893372 23.1920166 5.43399048 C11.60531576 4.38305591 11.60531576 4.38305591 6 2 C4.0075675 1.62406934 2.0081326 1.28020455 0 1 C0 0.67 0 0.34 0 0 Z " fill="#C1A01C" transform="translate(201,218)"/>
<path d="M0 0 C4.95 0 9.9 0 15 0 C15.99 0.99 16.98 1.98 18 3 C17.67 3.66 17.34 4.32 17 5 C16.34 4.34 15.68 3.68 15 3 C10.71 2.67 6.42 2.34 2 2 C2 19.16 2 36.32 2 54 C5.63 54 9.26 54 13 54 C13 43.77 13 33.54 13 23 C13.99 23 14.98 23 16 23 C15.67 33.89 15.34 44.78 15 56 C10.05 56 5.1 56 0 56 C0 37.52 0 19.04 0 0 Z " fill="#3C2B05" transform="translate(311,127)"/>
<path d="M0 0 C1.258125 -0.020625 2.51625 -0.04125 3.8125 -0.0625 C4.52019531 -0.07410156 5.22789062 -0.08570313 5.95703125 -0.09765625 C8 0 8 0 11 1 C26.82907512 3.32959301 42.92229788 3.28753421 58.87963867 3.20581055 C62.56240799 3.18750046 66.24492406 3.18530235 69.92773438 3.18554688 C84.31074043 3.16356057 98.63921822 2.79909838 113 2 C113 2.33 113 2.66 113 3 C105.91765774 5.14454545 99.12018662 5.42846136 91.75 5.6328125 C90.49614502 5.67437469 89.24229004 5.71593689 87.95043945 5.75875854 C84.64299423 5.86685325 81.33543598 5.96750403 78.02764893 6.06445312 C74.641927 6.16555292 71.25653131 6.27657253 67.87109375 6.38671875 C61.24765698 6.60021947 54.62397351 6.80389804 48 7 C48 6.34 48 5.68 48 5 C46.90667358 5.02356567 46.90667358 5.02356567 45.79125977 5.04760742 C9.91811529 5.71720932 9.91811529 5.71720932 0 0 Z " fill="#D6B01E" transform="translate(212,234)"/>
<path d="M0 0 C5.28 0 10.56 0 16 0 C16 0.33 16 0.66 16 1 C11.05 1 6.1 1 1 1 C1 18.82 1 36.64 1 55 C5.62 55 10.24 55 15 55 C15 45.1 15 35.2 15 25 C23 33 23 33 23 36 C20.03 36.495 20.03 36.495 17 37 C17.01160156 38.28777344 17.02320313 39.57554687 17.03515625 40.90234375 C17.0445327 42.58072772 17.05363305 44.25911326 17.0625 45.9375 C17.07087891 46.78763672 17.07925781 47.63777344 17.08789062 48.51367188 C17.09272461 49.72700195 17.09272461 49.72700195 17.09765625 50.96484375 C17.10551147 52.08814087 17.10551147 52.08814087 17.11352539 53.23413086 C17 55 17 55 16 56 C10.72 56 5.44 56 0 56 C0 37.52 0 19.04 0 0 Z " fill="#9F801A" transform="translate(183,127)"/>
<path d="M0 0 C0 0.66 0 1.32 0 2 C-1.175625 2.433125 -2.35125 2.86625 -3.5625 3.3125 C-10.4632516 5.85927928 -10.4632516 5.85927928 -17 9.1875 C-19 10 -19 10 -22.0625 9.9375 C-27.69568472 10.02691563 -33.8481542 11.20794931 -38.80688477 14.02734375 C-41.51625149 15.2289598 -43.68190927 15.3196354 -46.640625 15.4140625 C-48.24550781 15.47207031 -48.24550781 15.47207031 -49.8828125 15.53125 C-50.99398438 15.5621875 -52.10515625 15.593125 -53.25 15.625 C-54.93996094 15.68300781 -54.93996094 15.68300781 -56.6640625 15.7421875 C-59.44254548 15.83637336 -62.22102334 15.92199586 -65 16 C-62.09428181 14.3873264 -59.62768266 13.63417992 -56.34375 13.17578125 C-55.41651123 13.0375293 -54.48927246 12.89927734 -53.53393555 12.75683594 C-52.53273682 12.61020508 -51.53153809 12.46357422 -50.5 12.3125 C-39.47958083 10.60719287 -28.7850147 8.10670006 -18.00390625 5.28637695 C-16.87210937 4.99077881 -15.7403125 4.69518066 -14.57421875 4.390625 C-13.56963623 4.12282227 -12.56505371 3.85501953 -11.5300293 3.57910156 C-9 3 -9 3 -6 3 C-6 2.34 -6 1.68 -6 1 C-3.92446352 0.4465236 -2.15634036 0 0 0 Z " fill="#D7B31B" transform="translate(391,220)"/>
<path d="M0 0 C4.95 0 9.9 0 15 0 C15 18.48 15 36.96 15 56 C10.05 56 5.1 56 0 56 C-0.33 45.77 -0.66 35.54 -1 25 C-0.34 25 0.32 25 1 25 C1 34.9 1 44.8 1 55 C5.29 55 9.58 55 14 55 C14 37.18 14 19.36 14 1 C7.565 1.495 7.565 1.495 1 2 C0.67 2.99 0.34 3.98 0 5 C-2.0625 6.1875 -2.0625 6.1875 -4 7 C-2.92598892 4.08482708 -2.22189824 2.22189824 0 0 Z " fill="#5A4205" transform="translate(230,127)"/>
<path d="M0 0 C-1 2 -1 2 -2.72045898 2.59594727 C-5.30938279 3.05483865 -7.84912664 3.28428409 -10.47265625 3.46484375 C-12.07077148 3.58182617 -12.07077148 3.58182617 -13.70117188 3.70117188 C-15.91457563 3.85679178 -18.12811566 4.01048737 -20.34179688 4.16210938 C-29.45890149 4.83481715 -38.37143625 5.84320838 -47 9 C-50.30549476 10.01817843 -53.29916065 10.10358142 -56.75 10.0625 C-57.73484375 10.05347656 -58.7196875 10.04445313 -59.734375 10.03515625 C-60.48203125 10.02355469 -61.2296875 10.01195313 -62 10 C-58.63135124 7.75423416 -55.70984346 7.22376028 -51.8125 6.5625 C-50.37496579 6.30618135 -48.93746683 6.04966498 -47.5 5.79296875 C-46.39011719 5.59840088 -46.39011719 5.59840088 -45.2578125 5.39990234 C-41.60414786 4.75276754 -37.95870886 4.06268274 -34.3125 3.375 C-33.02988281 3.13523437 -31.74726563 2.89546875 -30.42578125 2.6484375 C-28.4356055 2.27173377 -26.44795125 1.87987828 -24.46875 1.44921875 C-16.47440051 -0.00544928 -8.11224496 -0.1622449 0 0 Z " fill="#D1AC1E" transform="translate(247,86)"/>
<path d="M0 0 C1.58206057 0.00667536 3.16410534 0.0186375 4.74609375 0.03515625 C5.55240234 0.03966797 6.35871094 0.04417969 7.18945312 0.04882812 C9.18753131 0.06065107 11.18557158 0.07858711 13.18359375 0.09765625 C13.18359375 0.75765625 13.18359375 1.41765625 13.18359375 2.09765625 C7.90359375 2.09765625 2.62359375 2.09765625 -2.81640625 2.09765625 C-2.81640625 11.99765625 -2.81640625 21.89765625 -2.81640625 32.09765625 C-7.14129351 29.93521262 -9.14812983 27.4857052 -11.94140625 23.72265625 C-12.60462891 22.85640625 -12.60462891 22.85640625 -13.28125 21.97265625 C-15.42862022 19.13112103 -17.38305808 16.36697847 -18.81640625 13.09765625 C-18.15640625 13.09765625 -17.49640625 13.09765625 -16.81640625 13.09765625 C-16.81640625 13.75765625 -16.81640625 14.41765625 -16.81640625 15.09765625 C-16.15640625 15.09765625 -15.49640625 15.09765625 -14.81640625 15.09765625 C-14.81640625 15.75765625 -14.81640625 16.41765625 -14.81640625 17.09765625 C-14.21828125 17.13890625 -13.62015625 17.18015625 -13.00390625 17.22265625 C-10.81640625 18.09765625 -10.81640625 18.09765625 -9.06640625 21.03515625 C-7.81640625 24.09765625 -7.81640625 24.09765625 -7.81640625 26.09765625 C-7.15640625 26.42765625 -6.49640625 26.75765625 -5.81640625 27.09765625 C-5.15640625 27.75765625 -4.49640625 28.41765625 -3.81640625 29.09765625 C-3.85193604 28.25468994 -3.88746582 27.41172363 -3.92407227 26.54321289 C-4.05303404 23.42552438 -4.17738966 20.30769662 -4.29858398 17.18969727 C-4.35206427 15.83838546 -4.40739819 14.48714573 -4.46459961 13.13598633 C-4.54634196 11.19762636 -4.62093948 9.25896921 -4.6953125 7.3203125 C-4.74244385 6.15250244 -4.7895752 4.98469238 -4.83813477 3.78149414 C-4.80401541 -0.43282179 -4.38981209 0.11232887 0 0 Z " fill="#ECC322" transform="translate(353.81640625,124.90234375)"/>
<path d="M0 0 C0.99 0.495 0.99 0.495 2 1 C2 16.51 2 32.02 2 48 C2.66 48 3.32 48 4 48 C4 48.99 4 49.98 4 51 C3.01 51.495 3.01 51.495 2 52 C1.34 53.32 0.68 54.64 0 56 C0 37.52 0 19.04 0 0 Z " fill="#DEBD24" transform="translate(245,127)"/>
<path d="M0 0 C0.66 0 1.32 0 2 0 C3.96372768 2.23204483 5.80496976 4.46817171 7.625 6.8125 C8.3984375 7.77639648 8.3984375 7.77639648 9.1875 8.75976562 C9.67476563 9.38173828 10.16203125 10.00371094 10.6640625 10.64453125 C11.11217285 11.21534424 11.5602832 11.78615723 12.02197266 12.37426758 C13 14 13 14 13 17 C7.21538462 12.69230769 7.21538462 12.69230769 6.125 9.1875 C6.08375 8.465625 6.0425 7.74375 6 7 C5.01 7 4.02 7 3 7 C3.01160156 7.75023437 3.02320313 8.50046875 3.03515625 9.2734375 C3.16293156 23.766808 3.16293156 23.766808 2 29 C1.34 29.33 0.68 29.66 0 30 C0 20.1 0 10.2 0 0 Z " fill="#F5CE0C" transform="translate(326,152)"/>
<path d="M0 0 C0.33 0 0.66 0 1 0 C1 4.62 1 9.24 1 14 C6.94 14 12.88 14 19 14 C19 27.53 19 41.06 19 55 C18.67 55 18.34 55 18 55 C18 41.8 18 28.6 18 15 C12.06 15 6.12 15 0 15 C-0.66 14.67 -1.32 14.34 -2 14 C-1.34 9.38 -0.68 4.76 0 0 Z " fill="#EBC62F" transform="translate(251,127)"/>
<path d="M0 0 C0.33 0.66 0.66 1.32 1 2 C-3.78064526 9.47611547 -8.60531191 16.86479993 -16 22 C-16.66 22 -17.32 22 -18 22 C-18 21.01 -18 20.02 -18 19 C-17.01 19 -16.02 19 -15 19 C-14.89429688 18.40703125 -14.78859375 17.8140625 -14.6796875 17.203125 C-13.90592401 14.69506404 -12.98153209 13.57882266 -11.125 11.75 C-10.61195313 11.22921875 -10.09890625 10.7084375 -9.5703125 10.171875 C-8 9 -8 9 -5 9 C-5.103125 8.071875 -5.20625 7.14375 -5.3125 6.1875 C-5.1578125 4.6096875 -5.1578125 4.6096875 -5 3 C-2.5 1.125 -2.5 1.125 0 0 Z " fill="#DCB81A" transform="translate(440,167)"/>
<path d="M0 0 C0.66 0.33 1.32 0.66 2 1 C2 1.66 2 2.32 2 3 C3.2375 2.814375 4.475 2.62875 5.75 2.4375 C8.76279577 2.05288777 11.10010827 1.9125406 14 3 C14 3.99 14 4.98 14 6 C16.475 6.495 16.475 6.495 19 7 C19.33 7.99 19.66 8.98 20 10 C11.26313439 7.88779073 2.62890392 5.5146362 -6 3 C-3 1 -3 1 0 0 Z " fill="#D3AC16" transform="translate(367,79)"/>
<path d="M0 0 C0.66 0 1.32 0 2 0 C2.33 1.65 2.66 3.3 3 5 C2.01 5.495 2.01 5.495 1 6 C1.763125 6.226875 2.52625 6.45375 3.3125 6.6875 C6.57304568 8.27985952 7.5273138 9.72736399 9 13 C8.67 13.66 8.34 14.32 8 15 C5 11.25 5 11.25 5 9 C-0.28 9 -5.56 9 -11 9 C-10.67 8.34 -10.34 7.68 -10 7 C-8.35 7 -6.7 7 -5 7 C-5.33 6.01 -5.66 5.02 -6 4 C-5.34 3.67 -4.68 3.34 -4 3 C-3.01 3.33 -2.02 3.66 -1 4 C-0.67 2.68 -0.34 1.36 0 0 Z " fill="#F9CA0E" transform="translate(194,118)"/>
<path d="M0 0 C0.33 0 0.66 0 1 0 C1 9.9 1 19.8 1 30 C0.67 30 0.34 30 0 30 C-0.33 22.41 -0.66 14.82 -1 7 C-2.32 8.65 -3.64 10.3 -5 12 C-5.66 12 -6.32 12 -7 12 C-7 12.66 -7 13.32 -7 14 C-7.66 14 -8.32 14 -9 14 C-7.65378455 10.19136032 -5.94641263 7.34590149 -3.4375 4.1875 C-2.81746094 3.39730469 -2.19742188 2.60710937 -1.55859375 1.79296875 C-0.78708984 0.90544922 -0.78708984 0.90544922 0 0 Z " fill="#D9B62F" transform="translate(229,153)"/>
<path d="M0 0 C7.30978954 -0.28442761 14.44840885 0.65525094 21.68334961 1.59912109 C23.82361159 1.87643975 25.9653099 2.13974493 28.10742188 2.40234375 C29.47406657 2.57728147 30.84060733 2.75303356 32.20703125 2.9296875 C33.4391333 3.08679199 34.67123535 3.24389648 35.94067383 3.40576172 C39 4 39 4 42 6 C31.8322886 5.59961344 21.97886236 5.10160889 12 3 C9.77242388 2.61566468 7.54320597 2.24073202 5.3125 1.875 C3.79076172 1.62363281 3.79076172 1.62363281 2.23828125 1.3671875 C1.49964844 1.24601563 0.76101562 1.12484375 0 1 C0 0.67 0 0.34 0 0 Z " fill="#4F3E09" transform="translate(200,231)"/>
<path d="M0 0 C0.6875 1.625 0.6875 1.625 1 4 C-0.4375 7.25 -0.4375 7.25 -2 10 C-2.66 10 -3.32 10 -4 10 C-4.0825 10.763125 -4.165 11.52625 -4.25 12.3125 C-5 15 -5 15 -6.75 16.75 C-9.18691588 18.10384216 -11.25094301 18.61818653 -14 19 C-13.154375 18.05125 -12.30875 17.1025 -11.4375 16.125 C-7.20123199 11.19277367 -2.91688678 5.83377357 0 0 Z " fill="#DBB81B" transform="translate(453,174)"/>
<path d="M0 0 C0.33 1.32 0.66 2.64 1 4 C0.34 4 -0.32 4 -1 4 C-1 11.59 -1 19.18 -1 27 C-1.99 26.34 -2.98 25.68 -4 25 C-4.3366407 22.37662878 -4.47320355 20.06052086 -4.4375 17.4375 C-4.43427734 16.71820313 -4.43105469 15.99890625 -4.42773438 15.2578125 C-4.27767366 9.51410928 -3.06443725 4.92498844 0 0 Z " fill="#AD8F1E" transform="translate(110,139)"/>
<path d="M0 0 C4.84688192 0.78175515 9.3766367 2.39844278 14 4 C14 4.66 14 5.32 14 6 C14.94875 6.28875 15.8975 6.5775 16.875 6.875 C20 8 20 8 22 10 C19.69 10 17.38 10 15 10 C15 9.34 15 8.68 15 8 C13.68 8.33 12.36 8.66 11 9 C11.33 8.01 11.66 7.02 12 6 C9.36 5.34 6.72 4.68 4 4 C4 3.34 4 2.68 4 2 C2.68 1.67 1.36 1.34 0 1 C0 0.67 0 0.34 0 0 Z " fill="#ECC21D" transform="translate(389,104)"/>
<path d="M0 0 C-3.43564022 1.00646726 -6.87379629 2.0040545 -10.3125 3 C-11.28896484 3.28617187 -12.26542969 3.57234375 -13.27148438 3.8671875 C-14.67817383 4.27324219 -14.67817383 4.27324219 -16.11328125 4.6875 C-16.97735596 4.93886719 -17.84143066 5.19023438 -18.73168945 5.44921875 C-21 6 -21 6 -24 6 C-23.67 5.01 -23.34 4.02 -23 3 C-22.34 2.67 -21.68 2.34 -21 2 C-21.33 1.34 -21.66 0.68 -22 0 C-20.00045254 -0.04254356 -17.99958364 -0.04080783 -16 0 C-15.67 0.33 -15.34 0.66 -15 1 C-12.22921339 0.56033799 -9.50500361 -0.03898454 -6.76171875 -0.625 C-4.04685792 -0.9936374 -2.57829529 -0.73852573 0 0 Z " fill="#D1B120" transform="translate(195,80)"/>
<path d="M0 0 C-2.34523216 2.67479093 -4.58288792 3.88166223 -7.875 5.1875 C-8.71804687 5.53167969 -9.56109375 5.87585938 -10.4296875 6.23046875 C-13.09209351 7.02757207 -15.2378985 7.14355008 -18 7 C-18.33 7.66 -18.66 8.32 -19 9 C-19.66 8.34 -20.32 7.68 -21 7 C-16.21694281 4.82798369 -11.40974378 2.71247666 -6.5625 0.6875 C-5.73878906 0.34074219 -4.91507813 -0.00601563 -4.06640625 -0.36328125 C-2 -1 -2 -1 0 0 Z " fill="#C5A521" transform="translate(165,103)"/>
<path d="M0 0 C1.23415334 3.7495651 0.96117079 7.21134184 0.8125 11.125 C0.67899877 17.08829687 1.52391083 21.75269016 4.125 27.14453125 C5 29 5 29 5 31 C4.34 31 3.68 31 3 31 C0.8480563 27.77208445 0.79913557 26.71599191 1 23 C0.34 23 -0.32 23 -1 23 C-1.02887512 19.35418313 -1.04675585 15.70839537 -1.0625 12.0625 C-1.07087891 11.02158203 -1.07925781 9.98066406 -1.08789062 8.90820312 C-1.09272461 7.42416992 -1.09272461 7.42416992 -1.09765625 5.91015625 C-1.10289307 4.99371338 -1.10812988 4.07727051 -1.11352539 3.13305664 C-1 1 -1 1 0 0 Z " fill="#C7A726" transform="translate(92,145)"/>
<path d="M0 0 C3.20625332 3.20625332 3.89854479 6.77060159 4.265625 11.21875 C4.26046875 12.3015625 4.2553125 13.384375 4.25 14.5 C4.25515625 15.5828125 4.2603125 16.665625 4.265625 17.78125 C3.98879794 21.13574256 3.19052385 23.86306413 2 27 C1.67 27 1.34 27 1 27 C0.875 21.25 0.875 21.25 2 19 C2.33235103 14.45786925 1.54101189 10.51650538 0.4375 6.1484375 C0 4 0 4 0 0 Z " fill="#CAAE22" transform="translate(440,140)"/>
<path d="M0 0 C10.09759268 -0.2999285 19.37069489 -0.56326709 29 3 C29 3.33 29 3.66 29 4 C22.51877412 4.18343092 16.40111777 3.4800332 10 2.5 C9.03449219 2.35691406 8.06898438 2.21382813 7.07421875 2.06640625 C4.71532665 1.71607574 2.35735455 1.3605065 0 1 C0 0.67 0 0.34 0 0 Z " fill="#BFA022" transform="translate(314,73)"/>
<path d="M0 0 C3.61885077 3.61885077 3.0868405 8.55215904 3.1875 13.4375 C3.13605445 18.83193362 2.99496875 24.00503125 -1 28 C-0.83701416 27.28884033 -0.67402832 26.57768066 -0.50610352 25.8449707 C0.00277656 22.98439204 0.11387043 20.38280642 0.09765625 17.48046875 C0.09443359 16.45888672 0.09121094 15.43730469 0.08789062 14.38476562 C0.07951172 13.32966797 0.07113281 12.27457031 0.0625 11.1875 C0.05798828 10.11306641 0.05347656 9.03863281 0.04882812 7.93164062 C0.03707729 5.28770317 0.02064787 2.64388048 0 0 Z " fill="#523D09" transform="translate(456,141)"/>
<path d="M0 0 C-3.09588215 3.09588215 -7.00145749 4.31735542 -11 6 C-11.90621094 6.39058594 -12.81242188 6.78117187 -13.74609375 7.18359375 C-15.07833984 7.74240234 -15.07833984 7.74240234 -16.4375 8.3125 C-17.26121094 8.65925781 -18.08492187 9.00601563 -18.93359375 9.36328125 C-21 10 -21 10 -23 9 C-21 6 -21 6 -18.8359375 5.48828125 C-17.61777344 5.40126953 -17.61777344 5.40126953 -16.375 5.3125 C-15.14910156 5.21388672 -15.14910156 5.21388672 -13.8984375 5.11328125 C-13.27195313 5.07589844 -12.64546875 5.03851563 -12 5 C-12 4.34 -12 3.68 -12 3 C-4.71428571 -0.42857143 -4.71428571 -0.42857143 0 0 Z " fill="#B29521" transform="translate(164,88)"/>
<path d="M0 0 C1.32 0.33 2.64 0.66 4 1 C-7.31203008 8.61528822 -7.31203008 8.61528822 -10 10 C-10.66 9.67 -11.32 9.34 -12 9 C-11.01 8.67 -10.02 8.34 -9 8 C-7.78130071 5.49552484 -7.78130071 5.49552484 -7 3 C-5.68 3 -4.36 3 -3 3 C-2.67 2.34 -2.34 1.68 -2 1 C-1.34 1.33 -0.68 1.66 0 2 C0 1.34 0 0.68 0 0 Z " fill="#E2BD1A" transform="translate(414,191)"/>
<path d="M0 0 C0.66 0 1.32 0 2 0 C1.87431641 0.99580078 1.87431641 0.99580078 1.74609375 2.01171875 C1.64425781 2.89472656 1.54242188 3.77773437 1.4375 4.6875 C1.33308594 5.55761719 1.22867188 6.42773438 1.12109375 7.32421875 C0.9956248 10.09667774 1.4386576 12.29234843 2 15 C2.0659735 17.10323534 2.08562245 19.20835724 2.0625 21.3125 C2.05347656 22.38113281 2.04445313 23.44976562 2.03515625 24.55078125 C2.02355469 25.35902344 2.01195313 26.16726562 2 27 C1.34 26.67 0.68 26.34 0 26 C-1.74723362 18.28579872 -2.49814424 7.49443272 0 0 Z " fill="#F1C619" transform="translate(109,143)"/>
<path d="M0 0 C0.66 0 1.32 0 2 0 C2 0.66 2 1.32 2 2 C2.66 2 3.32 2 4 2 C4 2.66 4 3.32 4 4 C4.598125 4.04125 5.19625 4.0825 5.8125 4.125 C8 5 8 5 9.75 7.9375 C11 11 11 11 11 13 C11.66 13.33 12.32 13.66 13 14 C13.99 15.485 13.99 15.485 15 17 C14.01 17 13.02 17 12 17 C10.17598222 14.95426207 8.55490851 12.9489222 6.9375 10.75 C6.49083984 10.16347656 6.04417969 9.57695312 5.58398438 8.97265625 C3.42449133 6.09978807 1.44555287 3.29945402 0 0 Z " fill="#DBB624" transform="translate(335,138)"/>
<path d="M0 0 C0.66 0 1.32 0 2 0 C3.625 2.5 3.625 2.5 5 5 C4.01 5.33 3.02 5.66 2 6 C1.67 13.92 1.34 21.84 1 30 C0.67 30 0.34 30 0 30 C0 20.1 0 10.2 0 0 Z " fill="#D9BA2E" transform="translate(326,152)"/>
<path d="M0 0 C1.65 1.65 3.3 3.3 5 5 C4.67 5.66 4.34 6.32 4 7 C3.01 6.34 2.02 5.68 1 5 C1 13.58 1 22.16 1 31 C0.67 31 0.34 31 0 31 C0 20.77 0 10.54 0 0 Z " fill="#BD9E2C" transform="translate(198,152)"/>
<path d="M0 0 C-2 2 -2 2 -5.0625 2.5 C-6.031875 2.665 -7.00125 2.83 -8 3 C-8.33 3.66 -8.66 4.32 -9 5 C-12.3 5 -15.6 5 -19 5 C-16.35578277 3.23718851 -14.46970304 2.38285547 -11.5 1.4375 C-10.7265625 1.18871094 -9.953125 0.93992187 -9.15625 0.68359375 C-8.4446875 0.45800781 -7.733125 0.23242188 -7 0 C-3.86650268 -1.04449911 -3.01031744 -0.93423645 0 0 Z " fill="#CFAD1E" transform="translate(185,97)"/>
<path d="M0 0 C0 3 0 3 -1 5 C1.475 6.98 1.475 6.98 4 9 C-0.19565574 9 -2.03086031 8.2710189 -5.75 6.5 C-6.73484375 6.0359375 -7.7196875 5.571875 -8.734375 5.09375 C-9.48203125 4.7328125 -10.2296875 4.371875 -11 4 C-8.10765685 3.17361624 -6.11257569 3 -3 3 C-1.2488427 1.5833253 -1.2488427 1.5833253 0 0 Z " fill="#CDA819" transform="translate(414,92)"/>
<path d="M0 0 C5.20142984 2.44773169 7.82188865 6.40211381 11 11 C10.67 11.66 10.34 12.32 10 13 C9.34 11.68 8.68 10.36 8 9 C7.01 9 6.02 9 5 9 C4.67 9.99 4.34 10.98 4 12 C3.34 11.67 2.68 11.34 2 11 C2.33 8.69 2.66 6.38 3 4 C2.01 3.34 1.02 2.68 0 2 C0 1.34 0 0.68 0 0 Z " fill="#D6B019" transform="translate(429,127)"/>
<path d="M0 0 C0 0.66 0 1.32 0 2 C-0.66 2 -1.32 2 -2 2 C-1.67 2.99 -1.34 3.98 -1 5 C-6 6.66666667 -11 8.33333333 -16 10 C-13.67732405 6.37820021 -11.21897402 4.74395967 -7.4375 2.75 C-6.46683594 2.22921875 -5.49617187 1.7084375 -4.49609375 1.171875 C-2 0 -2 0 0 0 Z " fill="#C5A51C" transform="translate(144,111)"/>
<path d="M0 0 C0.33 0.66 0.66 1.32 1 2 C0.01 3.485 0.01 3.485 -1 5 C-1.66 5 -2.32 5 -3 5 C-3.23460937 5.63421875 -3.46921875 6.2684375 -3.7109375 6.921875 C-5 9 -5 9 -7.1640625 9.828125 C-7.97617187 9.96734375 -8.78828125 10.1065625 -9.625 10.25 C-10.44226563 10.39953125 -11.25953125 10.5490625 -12.1015625 10.703125 C-13.04128906 10.85007813 -13.04128906 10.85007813 -14 11 C-11.39385128 8.18037835 -8.42566427 6.04665318 -5.3125 3.8125 C-4.31863281 3.09707031 -3.32476562 2.38164062 -2.30078125 1.64453125 C-1.54152344 1.10183594 -0.78226562 0.55914062 0 0 Z " fill="#C9A91C" transform="translate(438,193)"/>
<path d="M0 0 C-10.66666667 9 -10.66666667 9 -15 9 C-15 8.34 -15 7.68 -15 7 C-14.34 7 -13.68 7 -13 7 C-13 6.01 -13 5.02 -13 4 C-11.35 4 -9.7 4 -8 4 C-8 2.68 -8 1.36 -8 0 C-4.71023192 -1.09658936 -3.28696233 -0.79953138 0 0 Z " fill="#EBC014" transform="translate(141,97)"/>
<path d="M0 0 C-3.2018225 1.76176836 -6.33606792 2.73351329 -9.875 3.625 C-10.88304687 3.88539063 -11.89109375 4.14578125 -12.9296875 4.4140625 C-16.0305097 5.00582246 -18.85156869 5.10338133 -22 5 C-19.29071931 2.29071931 -16.98253223 2.15457952 -13.25 1.375 C-12.03828125 1.11460937 -10.8265625 0.85421875 -9.578125 0.5859375 C-6.30143211 0.04936115 -3.31081291 -0.11171455 0 0 Z " fill="#D1AF1E" transform="translate(368,213)"/>
<path d="M0 0 C0.99 0.33 1.98 0.66 3 1 C0.76066727 3.76623455 -1.75920255 4.86921995 -5.0234375 6.16796875 C-7.87961342 7.37027205 -10.57813882 8.85180022 -13.30078125 10.328125 C-13.86152344 10.54984375 -14.42226563 10.7715625 -15 11 C-15.66 10.67 -16.32 10.34 -17 10 C-16.67 9.34 -16.34 8.68 -16 8 C-13.5 7.5 -13.5 7.5 -11 7 C-10.67 6.34 -10.34 5.68 -10 5 C-9.01 5 -8.02 5 -7 5 C-7 4.34 -7 3.68 -7 3 C-6.030625 2.87625 -5.06125 2.7525 -4.0625 2.625 C-2.5465625 2.315625 -2.5465625 2.315625 -1 2 C-0.67 1.34 -0.34 0.68 0 0 Z " fill="#372308" transform="translate(421,203)"/>
<path d="M0 0 C5.02585263 1.07108335 10.02331838 2.21842317 15 3.5 C15.928125 3.7371875 16.85625 3.974375 17.8125 4.21875 C20 5 20 5 21 7 C15.62213295 7.58139103 11.50269199 5.89390906 6.5859375 3.97265625 C4.39367322 3.14807346 2.28201636 2.50890036 0 2 C0 1.34 0 0.68 0 0 Z " fill="#DFB71F" transform="translate(368,97)"/>
<path d="M0 0 C1.23556641 0.01740234 1.23556641 0.01740234 2.49609375 0.03515625 C3.32238281 0.04417969 4.14867187 0.05320312 5 0.0625 C5.63808594 0.07410156 6.27617187 0.08570312 6.93359375 0.09765625 C3.31345579 2.22171679 -0.49435094 2.94777971 -4.56640625 3.72265625 C-5.56220703 3.92375 -5.56220703 3.92375 -6.578125 4.12890625 C-9.83469475 4.76591989 -12.73054724 5.09765625 -16.06640625 5.09765625 C-16.06640625 4.43765625 -16.06640625 3.77765625 -16.06640625 3.09765625 C-14.67615234 2.89849609 -14.67615234 2.89849609 -13.2578125 2.6953125 C-12.06027344 2.51871094 -10.86273438 2.34210938 -9.62890625 2.16015625 C-8.43394531 1.98613281 -7.23898438 1.81210938 -6.0078125 1.6328125 C-3.2718031 1.13502593 -2.56431768 0.12118704 0 0 Z " fill="#251503" transform="translate(197.06640625,90.90234375)"/>
<path d="M0 0 C5.61 0 11.22 0 17 0 C17 0.66 17 1.32 17 2 C15.41058594 2.09087891 15.41058594 2.09087891 13.7890625 2.18359375 C12.40102779 2.26800127 11.01300768 2.35264917 9.625 2.4375 C8.92632812 2.47681641 8.22765625 2.51613281 7.5078125 2.55664062 C3.62639508 2.74280134 3.62639508 2.74280134 0 4 C0 2.68 0 1.36 0 0 Z " fill="#E0BA1F" transform="translate(228,125)"/>
<path d="M0 0 C-3.80273074 2.38171031 -7.89003197 2.65510945 -12.25 3.125 C-12.99507813 3.21136719 -13.74015625 3.29773438 -14.5078125 3.38671875 C-16.33777846 3.59786867 -18.16879879 3.79984545 -20 4 C-20 3.34 -20 2.68 -20 2 C-13.2168636 0.57997892 -6.93302093 -0.22731216 0 0 Z " fill="#C4A722" transform="translate(346,218)"/>
<path d="M0 0 C1.32 0 2.64 0 4 0 C4 1.65 4 3.3 4 5 C7.63 5 11.26 5 15 5 C15 5.66 15 6.32 15 7 C11.37 7 7.74 7 4 7 C2.02 3.535 2.02 3.535 0 0 Z " fill="#3A2704" transform="translate(205,160)"/>
<path d="M0 0 C1.2065625 0.0309375 1.2065625 0.0309375 2.4375 0.0625 C2.02757813 0.70316406 1.61765625 1.34382812 1.1953125 2.00390625 C-1.90065426 6.97374762 -4.31622504 11.32963518 -5.5625 17.0625 C-6.79916047 13.48992531 -6.45343449 10.70723199 -5.5625 7.0625 C-4.9025 6.7325 -4.2425 6.4025 -3.5625 6.0625 C-3.583125 5.258125 -3.60375 4.45375 -3.625 3.625 C-3.54067676 0.16774696 -3.45725304 0.08432324 0 0 Z " fill="#CBA822" transform="translate(99.5625,126.9375)"/>
<path d="M0 0 C12.42569511 6.75934803 12.42569511 6.75934803 17 10 C17 10.33 17 10.66 17 11 C14.875 11.3125 14.875 11.3125 12 11 C9.95880212 9.38405168 7.95927063 7.7143618 6 6 C5.071875 5.649375 4.14375 5.29875 3.1875 4.9375 C2.465625 4.628125 1.74375 4.31875 1 4 C0.36328125 1.94140625 0.36328125 1.94140625 0 0 Z " fill="#DEB923" transform="translate(117,198)"/>
<path d="M0 0 C-3.53748473 4.57792141 -9.61267327 5.02048605 -15 6 C-12.87748883 3.69895986 -10.84451444 2.18105541 -8.0625 0.75 C-7.39347656 0.39421875 -6.72445313 0.0384375 -6.03515625 -0.328125 C-3.61730731 -1.12634 -2.36988243 -0.82707306 0 0 Z " fill="#CFAE21" transform="translate(411,213)"/>
<path d="M0 0 C-0.93322896 3.22388187 -1.41299771 4.66015657 -4.375 6.375 C-7.13945539 7.03320367 -8.34311004 6.78010812 -11 6 C-9.54550599 4.9944239 -8.08627557 3.99569565 -6.625 3 C-5.40683594 2.1646875 -5.40683594 2.1646875 -4.1640625 1.3125 C-2 0 -2 0 0 0 Z " fill="#3B2C0C" transform="translate(424,189)"/>
<path d="M0 0 C0.33 0 0.66 0 1 0 C1.08132187 2.56314499 1.14064175 5.12368418 1.1875 7.6875 C1.22520508 8.7693457 1.22520508 8.7693457 1.26367188 9.87304688 C1.32614409 14.43351838 0.91641976 17.41979462 -2 21 C-2.66 21 -3.32 21 -4 21 C-3.79503906 20.40574219 -3.59007812 19.81148437 -3.37890625 19.19921875 C-1.29640022 12.79227435 -0.37036322 6.71762246 0 0 Z " fill="#392808" transform="translate(444,150)"/>
<path d="M0 0 C0.99 0 1.98 0 3 0 C3 0.99 3 1.98 3 3 C3.99 3.33 4.98 3.66 6 4 C5.02471263 5.33617352 4.04466681 6.6688751 3.0625 8 C2.24458984 9.11375 2.24458984 9.11375 1.41015625 10.25 C0.94480469 10.8275 0.47945312 11.405 0 12 C-0.33 12 -0.66 12 -1 12 C-1 10.35 -1 8.7 -1 7 C-0.01 7 0.98 7 2 7 C2 5.68 2 4.36 2 3 C1.34 3 0.68 3 0 3 C0 2.01 0 1.02 0 0 Z " fill="#EABE1D" transform="translate(217,134)"/>
<path d="M0 0 C0.66 0.33 1.32 0.66 2 1 C1.57847656 1.48210937 1.15695313 1.96421875 0.72265625 2.4609375 C0.17480469 3.09257813 -0.37304688 3.72421875 -0.9375 4.375 C-1.48277344 5.00148438 -2.02804688 5.62796875 -2.58984375 6.2734375 C-4.06958624 7.95632334 -4.06958624 7.95632334 -5 10 C-6.97888961 10.72693904 -8.97954558 11.39816251 -11 12 C-9.49650623 8.33213607 -7.36271208 6.31089607 -4.375 3.75 C-3.14910156 2.69039063 -3.14910156 2.69039063 -1.8984375 1.609375 C-1.27195312 1.07828125 -0.64546875 0.5471875 0 0 Z " fill="#C09C22" transform="translate(126,121)"/>
<path d="M0 0 C2.64 0 5.28 0 8 0 C8 0.66 8 1.32 8 2 C8.5775 2.12375 9.155 2.2475 9.75 2.375 C12.02335767 3.00648824 13.9253529 3.88858191 16 5 C11.94087374 6.35304209 10.22850409 5.15216503 6.3125 3.5625 C5.13300781 3.08941406 3.95351563 2.61632812 2.73828125 2.12890625 C1.83464844 1.75636719 0.93101562 1.38382812 0 1 C0 0.67 0 0.34 0 0 Z " fill="#B99920" transform="translate(388,89)"/>
<path d="M0 0 C0.99 0.33 1.98 0.66 3 1 C3.33 2.98 3.66 4.96 4 7 C3.01 7.33 2.02 7.66 1 8 C0.67 8.99 0.34 9.98 0 11 C-0.66 11 -1.32 11 -2 11 C-1.34 7.37 -0.68 3.74 0 0 Z " fill="#05010A" transform="translate(108,171)"/>
<path d="M0 0 C6.27 0 12.54 0 19 0 C19 0.66 19 1.32 19 2 C21.31 2 23.62 2 26 2 C26 2.33 26 2.66 26 3 C24.52093108 3.02689216 23.04172517 3.04634621 21.5625 3.0625 C20.32693359 3.07990234 20.32693359 3.07990234 19.06640625 3.09765625 C17 3 17 3 16 2 C13.30764224 1.76321284 10.63501844 1.57801975 7.9375 1.4375 C7.17888672 1.39431641 6.42027344 1.35113281 5.63867188 1.30664062 C3.75934562 1.20026367 1.87969756 1.09960066 0 1 C0 0.67 0 0.34 0 0 Z " fill="#F8C810" transform="translate(297,70)"/>
<path d="M0 0 C0.33 0.66 0.66 1.32 1 2 C1.99 2 2.98 2 4 2 C3.67 2.99 3.34 3.98 3 5 C2.01 5 1.02 5 0 5 C-0.66 4.34 -1.32 3.68 -2 3 C-2.66 3.66 -3.32 4.32 -4 5 C-6.125 4.625 -6.125 4.625 -8 4 C-5.32521756 2.3372974 -3.0004856 1.00016187 0 0 Z " fill="#F2C516" transform="translate(429,202)"/>
<path d="M0 0 C0.75 1.625 0.75 1.625 1 4 C-1.96296296 9.59670782 -1.96296296 9.59670782 -5.25 10.875 C-5.8275 10.91625 -6.405 10.9575 -7 11 C-4.79080336 7.24436571 -2.43615728 3.61223321 0 0 Z " fill="#301E05" transform="translate(439,171)"/>
<path d="M0 0 C-3.06861273 1.66066101 -6.07564723 2.70177275 -9.4375 3.625 C-10.36433594 3.88539063 -11.29117187 4.14578125 -12.24609375 4.4140625 C-14.92391659 4.98381204 -17.27258425 5.10889863 -20 5 C-16.92957744 2.36304886 -14.54028612 1.45799372 -10.5625 0.8125 C-9.63566406 0.65394531 -8.70882813 0.49539062 -7.75390625 0.33203125 C-5.13626519 0.01642914 -2.63326502 -0.06212785 0 0 Z " fill="#342406" transform="translate(369,226)"/>
<path d="M0 0 C-2.96523513 1.97682342 -5.15841825 2.75828993 -8.5625 3.6875 C-10.01849609 4.09548828 -10.01849609 4.09548828 -11.50390625 4.51171875 C-14 5 -14 5 -16 4 C-11.71327571 -0.28672429 -5.76159905 -0.23516731 0 0 Z " fill="#CAA825" transform="translate(385,208)"/>
<path d="M0 0 C1.19156292 4.76625167 0.3415946 5.87879351 -2 10 C-2.99 10 -3.98 10 -5 10 C-5 10.66 -5 11.32 -5 12 C-5.66 11.67 -6.32 11.34 -7 11 C-4.69 7.37 -2.38 3.74 0 0 Z " fill="#C9A71B" transform="translate(453,174)"/>
<path d="M0 0 C0.33 0 0.66 0 1 0 C1.33 4.95 1.66 9.9 2 15 C0.68 14.67 -0.64 14.34 -2 14 C-1.34 9.38 -0.68 4.76 0 0 Z " fill="#E7BE26" transform="translate(251,127)"/>
<path d="M0 0 C2.77245014 -0.13487595 5.53837088 -0.23400807 8.3125 -0.3125 C9.49102539 -0.3753418 9.49102539 -0.3753418 10.69335938 -0.43945312 C12.90057029 -0.48641506 14.8423971 -0.47331379 17 0 C19.10546875 2.39453125 19.10546875 2.39453125 20 5 C19.67 5.66 19.34 6.32 19 7 C16 3.25 16 3.25 16 1 C10.72 1 5.44 1 0 1 C0 0.67 0 0.34 0 0 Z " fill="#CDAE26" transform="translate(183,126)"/>
<path d="M0 0 C3.1875 -0.375 3.1875 -0.375 7 0 C9.1403498 1.81188028 10.38988302 3.65801167 12 6 C8.55639368 6 7.25204608 5.20408468 4.3125 3.5 C3.50425781 3.0359375 2.69601562 2.571875 1.86328125 2.09375 C1.24839844 1.7328125 0.63351562 1.371875 0 1 C0 0.67 0 0.34 0 0 Z " fill="#C3A21E" transform="translate(417,102)"/>
<path d="M0 0 C6.625 -0.125 6.625 -0.125 10 1 C10.33 1.66 10.66 2.32 11 3 C11.99 3.66 12.98 4.32 14 5 C8.72250715 4.46148032 4.74354436 3.22656164 0 1 C0 0.67 0 0.34 0 0 Z " fill="#BA9B1E" transform="translate(163,207)"/>
<path d="M0 0 C0.33 0.66 0.66 1.32 1 2 C0.22265625 3.7265625 0.22265625 3.7265625 -0.9375 5.625 C-1.618125 6.73875 -2.29875 7.8525 -3 9 C-3.66 9 -4.32 9 -5 9 C-5.3125 6.1875 -5.3125 6.1875 -5 3 C-2.5 1.125 -2.5 1.125 0 0 Z " fill="#E6C01E" transform="translate(440,167)"/>
<path d="M0 0 C2.05078125 0.03255208 4.1015625 0.06510417 6.15234375 0.09765625 C3.27146829 2.4983858 0.58829541 4.57056662 -2.84765625 6.09765625 C-2.89037725 4.4315372 -2.88829457 2.7638274 -2.84765625 1.09765625 C-1.84765625 0.09765625 -1.84765625 0.09765625 0 0 Z " fill="#E7BC16" transform="translate(119.84765625,105.90234375)"/>
<path d="M0 0 C3.26008643 3.16952847 6.22237877 6.39937989 9 10 C8.67 10.66 8.34 11.32 8 12 C2.91558124 8.35248219 1.20555041 6.14830711 0 0 Z " fill="#CBAB22" transform="translate(331,157)"/>
<path d="M0 0 C2.4375 0.8125 2.4375 0.8125 5 2 C5.33 2.99 5.66 3.98 6 5 C4.02 5.33 2.04 5.66 0 6 C0 4.02 0 2.04 0 0 Z " fill="#E4BF13" transform="translate(200,158)"/>
<path d="M0 0 C1.98 0 3.96 0 6 0 C5.75 1.875 5.75 1.875 5 4 C2.41847698 5.72101535 1.15081975 6 -2 6 C-1.67 5.01 -1.34 4.02 -1 3 C-0.34 2.67 0.32 2.34 1 2 C0.67 1.34 0.34 0.68 0 0 Z " fill="#E7BF18" transform="translate(173,80)"/>
<path d="M0 0 C2.475 0.495 2.475 0.495 5 1 C5 1.66 5 2.32 5 3 C5.969375 3.268125 6.93875 3.53625 7.9375 3.8125 C8.948125 4.204375 9.95875 4.59625 11 5 C11.33 5.99 11.66 6.98 12 8 C7.44328408 6.48109469 3.68276708 4.04597738 0 1 C0 0.67 0 0.34 0 0 Z " fill="#BD9E1E" transform="translate(125,187)"/>
<path d="M0 0 C2.475 0.99 2.475 0.99 5 2 C5.33 4.64 5.66 7.28 6 10 C3.38275905 7.63202009 1.67138271 5.10399646 0 2 C0 1.34 0 0.68 0 0 Z " fill="#271804" transform="translate(96,172)"/>
<path d="M0 0 C4.84688192 0.78175515 9.3766367 2.39844278 14 4 C14 4.33 14 4.66 14 5 C6.25 5.125 6.25 5.125 4 4 C4 3.34 4 2.68 4 2 C2.68 1.67 1.36 1.34 0 1 C0 0.67 0 0.34 0 0 Z " fill="#D5B423" transform="translate(389,104)"/>
<path d="M0 0 C0 0.66 0 1.32 0 2 C1.32 2.66 2.64 3.32 4 4 C2.56163249 3.88541307 1.12429034 3.75790884 -0.3125 3.625 C-1.11300781 3.55539063 -1.91351563 3.48578125 -2.73828125 3.4140625 C-5 3 -5 3 -8 1 C-2.25 -1.125 -2.25 -1.125 0 0 Z " fill="#BF9F18" transform="translate(369,80)"/>
<path d="M0 0 C-1.91315119 2.57619276 -2.9016314 2.98395232 -6.13671875 3.51171875 C-7.30847656 3.56972656 -8.48023438 3.62773437 -9.6875 3.6875 C-10.86699219 3.75324219 -12.04648437 3.81898438 -13.26171875 3.88671875 C-14.61716797 3.94279297 -14.61716797 3.94279297 -16 4 C-13.03476487 2.02317658 -10.84158175 1.24171007 -7.4375 0.3125 C-6.46683594 0.04050781 -5.49617188 -0.23148438 -4.49609375 -0.51171875 C-2 -1 -2 -1 0 0 Z " fill="#3C2807" transform="translate(384,210)"/>
<path d="M0 0 C1.32 0.33 2.64 0.66 4 1 C4.33 2.32 4.66 3.64 5 5 C2.66666667 5 0.33333333 5 -2 5 C-2 4.01 -2 3.02 -2 2 C-1.34 2 -0.68 2 0 2 C0 1.34 0 0.68 0 0 Z " fill="#E9BF1A" transform="translate(95,176)"/>
<path d="M0 0 C0.33 1.32 0.66 2.64 1 4 C-1.97 6.475 -1.97 6.475 -5 9 C-5 4.61031544 -2.87194899 3.23094261 0 0 Z " fill="#342406" transform="translate(106,122)"/>
<path d="M0 0 C-2.85478326 1.90318884 -4.41941308 2.4619099 -7.6875 3.125 C-8.49574219 3.29257813 -9.30398437 3.46015625 -10.13671875 3.6328125 C-10.75160156 3.75398438 -11.36648437 3.87515625 -12 4 C-12 3.01 -12 2.02 -12 1 C-7.93631321 0.22596442 -4.13574827 -0.0984702 0 0 Z " fill="#322107" transform="translate(172,99)"/>
<path d="M0 0 C1 2 1 2 0.4375 4 C-1.57302108 6.79724672 -3.74418077 7.15065585 -7 8 C-5.50902342 4.2047869 -3.24299151 2.38957269 0 0 Z " fill="#231703" transform="translate(431,182)"/>
<path d="M0 0 C-2.11770166 2.32947183 -4.03335588 3.88750845 -7 5 C-7.99 4.67 -8.98 4.34 -10 4 C-9.34 4 -8.68 4 -8 4 C-7.67 3.01 -7.34 2.02 -7 1 C-2.55696203 -1.27848101 -2.55696203 -1.27848101 0 0 Z " fill="#DCBA19" transform="translate(165,103)"/>
<path d="M0 0 C-0.33 1.65 -0.66 3.3 -1 5 C-2.32 5.33 -3.64 5.66 -5 6 C-5.33 5.01 -5.66 4.02 -6 3 C-2.25 0 -2.25 0 0 0 Z " fill="#25190A" transform="translate(126,107)"/>
<path d="M0 0 C2.31 0 4.62 0 7 0 C7.66 1.32 8.32 2.64 9 4 C5.17902761 3.46930939 2.93828597 2.50298434 0 0 Z " fill="#3B2A09" transform="translate(132,207)"/>
<path d="M0 0 C3.65316671 1.24976756 4.78065836 1.67098753 7 5 C4.69 5 2.38 5 0 5 C0 3.35 0 1.7 0 0 Z " fill="#E2BC1E" transform="translate(416,117)"/>
<path d="M0 0 C1.21236328 0.04060547 1.21236328 0.04060547 2.44921875 0.08203125 C3.06410156 0.11683594 3.67898437 0.15164062 4.3125 0.1875 C0.27957255 2.4219598 -3.13717434 2.73246743 -7.6875 3.1875 C-5.26849268 0.20484049 -3.789448 -0.16475861 0 0 Z " fill="#5E470C" transform="translate(199.6875,90.8125)"/>
<path d="M0 0 C4.75 1.875 4.75 1.875 7 3 C6.67 4.32 6.34 5.64 6 7 C4.02 4.69 2.04 2.38 0 0 Z " fill="#DCB628" transform="translate(116,178)"/>
<path d="M0 0 C1.4540625 0.0309375 1.4540625 0.0309375 2.9375 0.0625 C1.9784375 0.2171875 1.9784375 0.2171875 1 0.375 C0.319375 0.601875 -0.36125 0.82875 -1.0625 1.0625 C-1.3925 2.0525 -1.7225 3.0425 -2.0625 4.0625 C-4.125 5.25 -4.125 5.25 -6.0625 6.0625 C-3.76028481 0.07674051 -3.76028481 0.07674051 0 0 Z " fill="#342105" transform="translate(232.0625,127.9375)"/>
<path d="M0 0 C2.475 0.495 2.475 0.495 5 1 C5.33 2.32 5.66 3.64 6 5 C6.66 5 7.32 5 8 5 C7.67 5.66 7.34 6.32 7 7 C5.83040013 6.02433888 4.66438823 5.044375 3.5 4.0625 C2.8503125 3.51722656 2.200625 2.97195312 1.53125 2.41015625 C1.0259375 1.94480469 0.520625 1.47945313 0 1 C0 0.67 0 0.34 0 0 Z " fill="#443105" transform="translate(425,122)"/>
<path d="M0 0 C4.455 1.98 4.455 1.98 9 4 C9 4.33 9 4.66 9 5 C3.5 5.36666667 3.5 5.36666667 1.125 3.625 C0 2 0 2 0 0 Z " fill="#211301" transform="translate(139,197)"/>
<path d="M0 0 C1.65 0 3.3 0 5 0 C3.02 2.97 3.02 2.97 1 6 C-0.0625 4.125 -0.0625 4.125 -1 2 C-0.67 1.34 -0.34 0.68 0 0 Z " fill="#E2BD1E" transform="translate(97,127)"/>
<path d="M0 0 C1.98 0 3.96 0 6 0 C3.31158141 2.25245881 1.35358125 3.88213958 -2 5 C-2 4.34 -2 3.68 -2 3 C-1.34 3 -0.68 3 0 3 C0 2.01 0 1.02 0 0 Z " fill="#D7B423" transform="translate(128,101)"/>
</svg>
