<?xml version="1.0" standalone="no"?>
<!DOCTYPE svg PUBLIC "-//W3C//DTD SVG 20010904//EN"
 "http://www.w3.org/TR/2001/REC-SVG-20010904/DTD/svg10.dtd">
<svg version="1.0" xmlns="http://www.w3.org/2000/svg"
 width="530.000000pt" height="323.000000pt" viewBox="0 0 530.000000 323.000000"
 preserveAspectRatio="xMidYMid meet">

<g transform="translate(0.000000,323.000000) scale(0.100000,-0.100000)"
fill="#000000" stroke="none">
<path d="M0 1615 l0 -1615 2650 0 2650 0 0 1615 0 1615 -2650 0 -2650 0 0
-1615z m1890 0 c0 -264 -2 -305 -15 -305 -13 0 -15 41 -15 305 0 264 2 305 15
305 13 0 15 -41 15 -305z m-890 0 l0 -205 -332 2 -333 3 -3 190 c-1 104 0 195
2 202 4 10 76 13 336 13 l330 0 0 -205z m715 0 l0 -190 -312 -3 -313 -2 0 195
0 195 313 -2 312 -3 0 -190z m705 150 c67 -27 109 -62 132 -110 23 -47 21 -70
-12 -123 -25 -41 -68 -67 -150 -93 -54 -16 -88 -19 -195 -17 l-130 3 -3 184
-2 183 157 -4 c123 -3 168 -8 203 -23z m2030 -161 l0 -185 -27 3 -28 3 -3 170
c-1 93 0 175 2 182 3 7 17 13 31 13 l25 0 0 -186z m210 72 c0 -63 3 -117 8
-119 4 -2 60 27 124 65 91 54 124 69 149 66 30 -3 26 -6 -64 -58 -53 -30 -97
-57 -97 -60 0 -3 15 -15 33 -28 17 -13 61 -44 97 -70 l64 -47 -32 -3 c-26 -3
-48 8 -119 59 l-86 63 -36 -20 c-30 -16 -37 -26 -41 -59 -4 -35 -8 -40 -30
-40 l-25 0 -3 170 c-1 93 0 175 2 182 3 7 17 13 31 13 l25 0 0 -114z m-1911
95 c21 -14 5 -41 -24 -41 -29 0 -45 27 -24 41 8 5 19 9 24 9 6 0 16 -4 24 -9z
m735 -3 c20 -9 23 -14 15 -25 -13 -15 -48 -17 -69 -3 -13 9 -12 12 4 25 24 18
19 18 50 3z m228 -40 c3 -30 7 -33 41 -38 21 -3 38 -9 38 -15 0 -5 -17 -12
-38 -15 l-38 -5 -3 -80 c-4 -119 -2 -125 59 -125 59 0 64 -20 8 -32 -39 -8
-74 -2 -106 18 -21 14 -23 21 -23 119 l0 104 -32 3 c-46 4 -49 28 -4 28 34 0
36 2 36 35 0 32 2 35 29 35 26 0 30 -4 33 -32z m-526 -53 c31 -13 36 -13 41 0
3 8 16 15 29 15 l24 0 0 -146 c0 -81 -5 -154 -10 -165 -6 -10 -30 -29 -53 -40
-57 -30 -215 -31 -270 -3 -26 14 -34 23 -28 33 8 12 15 11 50 -3 60 -23 177
-22 218 4 31 18 53 63 39 77 -3 4 -22 -1 -41 -10 -55 -26 -170 -23 -226 6 -47
24 -79 72 -79 117 0 56 56 111 135 131 40 11 128 2 171 -16z m964 14 c25 -6
55 -20 68 -31 20 -20 22 -30 22 -130 0 -108 0 -108 -24 -108 -13 0 -26 5 -28
11 -3 9 -14 9 -41 0 -53 -18 -168 -16 -204 2 -42 22 -55 41 -51 79 5 53 52 78
148 78 42 0 91 -5 109 -11 18 -6 35 -9 38 -6 12 13 -9 58 -34 74 -34 22 -123
22 -176 0 -36 -16 -67 -14 -67 3 0 8 65 35 105 43 37 8 90 7 135 -4z m-1396
-15 c3 -9 6 -62 6 -119 0 -121 -4 -135 -36 -135 l-24 0 0 135 0 135 24 0 c13
0 27 -7 30 -16z m736 -119 l0 -135 -25 0 -25 0 0 135 0 135 25 0 25 0 0 -135z"/>
<path d="M2124 1745 c-3 -6 -3 -74 -2 -150 l3 -139 105 2 c145 4 207 26 253
92 36 52 9 129 -61 171 -27 16 -57 23 -112 26 -41 2 -99 5 -128 7 -34 2 -55
-1 -58 -9z"/>
<path d="M3033 1658 c-113 -24 -123 -157 -15 -199 37 -14 118 -11 162 7 45 18
53 35 48 109 -3 44 -6 50 -38 66 -44 22 -103 28 -157 17z"/>
<path d="M4007 1560 c-62 -19 -77 -66 -32 -96 34 -22 140 -22 182 0 40 20 41
64 3 83 -35 16 -120 24 -153 13z"/>
</g>
</svg>
