<?xml version="1.0" standalone="no"?>
<!DOCTYPE svg PUBLIC "-//W3C//DTD SVG 20010904//EN"
 "http://www.w3.org/TR/2001/REC-SVG-20010904/DTD/svg10.dtd">
<svg version="1.0" xmlns="http://www.w3.org/2000/svg"
 width="300.000000pt" height="300.000000pt" viewBox="0 0 300.000000 300.000000"
 preserveAspectRatio="xMidYMid meet">

<g transform="translate(0.000000,300.000000) scale(0.100000,-0.100000)"
fill="#000000" stroke="none">
<path d="M1195 2225 c-444 -49 -830 -205 -1029 -415 -37 -40 -78 -96 -97 -136
-32 -65 -34 -75 -34 -174 0 -94 3 -111 28 -165 64 -137 187 -251 375 -348 185
-95 359 -151 617 -198 171 -30 594 -39 786 -15 508 64 910 251 1071 500 143
221 59 479 -216 660 -186 123 -415 211 -682 261 -234 44 -576 56 -819 30z
m555 -115 c552 -50 973 -238 1085 -485 34 -74 39 -124 20 -196 -41 -163 -196
-296 -465 -402 -247 -98 -475 -137 -830 -144 -221 -4 -277 -2 -417 16 -494 65
-866 244 -972 470 -38 82 -37 183 4 266 60 121 215 242 415 323 205 84 387
124 710 155 82 8 344 6 450 -3z"/>
<path d="M770 1500 l0 -250 55 0 54 0 3 138 3 137 44 -67 c41 -65 45 -68 82
-68 36 0 41 4 81 63 l43 62 3 -132 3 -133 59 0 60 0 -2 248 -3 247 -55 0 -55
0 -61 -93 c-34 -51 -64 -95 -67 -98 -3 -4 -36 39 -72 95 l-66 101 -55 0 -54 0
0 -250z"/>
<path d="M1327 1743 c-4 -3 -7 -30 -7 -60 l0 -53 75 0 75 0 0 -190 0 -190 55
0 55 0 0 190 0 190 75 0 75 0 0 60 0 60 -198 0 c-109 0 -202 -3 -205 -7z"/>
<path d="M1797 1743 c-4 -3 -7 -116 -7 -250 l0 -243 55 0 55 0 0 145 c0 80 3
145 8 145 4 0 54 -66 110 -145 l104 -145 59 0 59 0 -2 248 -3 247 -55 0 -55 0
-5 -144 -5 -144 -94 132 c-51 73 -100 139 -108 146 -15 15 -103 21 -116 8z"/>
</g>
</svg>
