<?xml version="1.0" standalone="no"?>
<!DOCTYPE svg PUBLIC "-//W3C//DTD SVG 20010904//EN"
 "http://www.w3.org/TR/2001/REC-SVG-20010904/DTD/svg10.dtd">
<svg version="1.0" xmlns="http://www.w3.org/2000/svg"
 width="300.000000pt" height="217.000000pt" viewBox="0 0 300.000000 217.000000"
 preserveAspectRatio="xMidYMid meet">

<g transform="translate(0.000000,217.000000) scale(0.100000,-0.100000)"
fill="#000000" stroke="none">
<path d="M1400 2159 c-236 -34 -452 -217 -523 -444 -18 -58 -22 -93 -22 -205
1 -120 4 -142 27 -202 37 -97 84 -170 155 -241 269 -267 697 -257 955 22 66
71 133 200 153 297 77 365 -176 721 -549 773 -86 12 -116 12 -196 0z m120
-264 l0 -85 105 0 105 0 0 -62 c-1 -66 -7 -79 -54 -116 -23 -17 -42 -22 -92
-22 l-64 0 0 -144 c0 -174 7 -191 87 -191 26 0 62 2 78 5 l30 5 3 -61 c3 -54
0 -65 -23 -92 -31 -37 -78 -54 -155 -55 -118 -1 -199 42 -239 128 -20 42 -21
60 -21 338 l0 294 30 41 c37 52 122 102 173 102 l37 0 0 -85z"/>
<path d="M892 383 c3 -246 5 -271 23 -301 37 -61 141 -90 204 -57 33 16 41 33
41 81 0 32 -2 34 -35 34 -22 0 -43 8 -55 20 -19 19 -20 33 -20 224 0 112 -3
212 -6 221 -10 25 -58 45 -109 45 l-46 0 3 -267z"/>
<path d="M2730 393 c0 -234 2 -262 20 -301 31 -67 119 -99 199 -71 35 12 51
41 51 90 0 26 -3 29 -33 29 -18 0 -43 7 -55 16 -22 15 -22 19 -22 225 l0 211
-29 29 c-25 24 -37 29 -80 29 l-51 0 0 -257z"/>
<path d="M69 577 c-64 -42 -70 -69 -67 -277 3 -163 5 -189 23 -218 36 -60 135
-88 214 -61 38 13 51 35 51 86 l0 38 -52 -4 c-70 -4 -78 8 -78 126 l0 93 45 0
c61 0 95 32 95 90 l0 40 -70 0 -70 0 0 55 c0 54 -1 55 -29 55 -15 0 -43 -10
-62 -23z"/>
<path d="M484 477 c-88 -42 -134 -123 -134 -234 0 -82 22 -135 73 -180 47 -41
98 -57 177 -57 118 1 167 30 177 105 6 39 4 42 -13 35 -42 -16 -128 -27 -168
-21 -37 6 -86 38 -86 55 0 4 42 10 93 14 162 12 195 30 204 110 8 65 -25 128
-84 163 -67 39 -169 43 -239 10z m162 -118 c32 -36 9 -54 -75 -57 -39 -2 -71
0 -71 3 0 14 31 64 42 68 33 13 86 6 104 -14z"/>
<path d="M1332 474 c-155 -77 -179 -323 -42 -423 48 -35 91 -46 170 -45 109 2
170 42 170 110 0 33 -1 33 -27 22 -16 -6 -65 -11 -110 -12 -73 -1 -84 1 -107
23 -14 14 -26 28 -26 32 0 4 42 10 93 14 116 8 163 22 188 53 39 50 12 167
-47 209 -69 49 -182 57 -262 17z m159 -104 c23 -13 25 -55 3 -64 -9 -3 -44 -6
-80 -6 l-64 0 11 28 c5 15 17 33 26 40 20 15 77 16 104 2z"/>
<path d="M1915 491 c-103 -25 -172 -109 -182 -221 -14 -147 87 -260 232 -260
99 0 146 33 161 114 7 38 6 39 -17 32 -49 -14 -125 -18 -151 -7 -34 13 -68 66
-68 104 0 91 91 139 192 103 34 -12 38 -12 43 4 8 25 -4 71 -24 94 -34 40
-110 55 -186 37z"/>
<path d="M2325 476 c-61 -28 -87 -56 -116 -120 -44 -101 -21 -227 53 -292 49
-43 99 -59 183 -58 103 1 160 37 172 107 l5 35 -58 -14 c-72 -17 -121 -18
-163 -3 -28 10 -59 44 -49 54 2 2 46 7 98 11 126 9 175 29 190 81 17 55 -2
117 -49 164 -63 63 -176 78 -266 35z m157 -113 c22 -20 23 -49 2 -57 -9 -3
-45 -6 -80 -6 -63 0 -65 1 -59 23 16 52 97 77 137 40z"/>
</g>
</svg>
