<?xml version="1.0" standalone="no"?>
<!DOCTYPE svg PUBLIC "-//W3C//DTD SVG 20010904//EN"
 "http://www.w3.org/TR/2001/REC-SVG-20010904/DTD/svg10.dtd">
<svg version="1.0" xmlns="http://www.w3.org/2000/svg"
 width="200.000000pt" height="200.000000pt" viewBox="0 0 200.000000 200.000000"
 preserveAspectRatio="xMidYMid meet">

<g transform="translate(0.000000,200.000000) scale(0.100000,-0.100000)"
fill="#000000" stroke="none">
<path d="M290 415 c0 -10 10 -15 30 -15 l30 0 0 -70 c0 -56 3 -70 15 -70 12 0
15 14 15 70 l0 70 36 0 c24 0 34 4 32 13 -3 8 -31 13 -81 15 -64 2 -77 0 -77
-13z"/>
<path d="M500 345 l0 -86 68 3 c50 2 67 7 67 17 0 11 -14 15 -50 15 -37 1 -50
5 -50 16 0 10 12 16 38 18 53 5 51 32 -3 32 -33 0 -40 3 -40 20 0 17 7 20 50
20 38 0 50 4 50 15 0 12 -14 15 -65 15 l-65 0 0 -85z"/>
<path d="M720 390 l32 -40 -37 -45 c-33 -40 -35 -45 -17 -45 11 0 32 14 47 32
l27 32 27 -33 c17 -20 34 -32 45 -30 16 4 14 9 -13 43 -37 47 -38 56 -6 86 30
28 32 40 5 40 -11 0 -27 -12 -37 -26 l-17 -26 -22 26 c-13 14 -33 26 -44 26
-20 0 -20 -2 10 -40z"/>
<path d="M900 416 c0 -9 12 -16 28 -18 26 -3 27 -5 30 -70 2 -52 6 -68 17 -68
12 0 15 15 15 70 l0 70 30 0 c20 0 30 5 30 15 0 12 -15 15 -75 15 -58 0 -75
-3 -75 -14z"/>
<path d="M1115 405 c-54 -53 -9 -145 72 -145 46 0 68 13 60 34 -5 13 -11 14
-31 5 -59 -27 -115 25 -81 77 15 24 22 26 61 21 45 -5 68 8 43 24 -8 5 -33 9
-57 9 -32 0 -49 -6 -67 -25z"/>
<path d="M1320 345 l0 -85 65 0 c55 0 65 3 65 18 0 14 -8 16 -50 14 -45 -4
-50 -2 -50 17 0 17 6 21 35 21 24 0 35 5 35 15 0 10 -11 15 -35 15 -28 0 -35
4 -35 20 0 17 7 20 50 20 38 0 50 4 50 15 0 12 -14 15 -65 15 l-65 0 0 -85z"/>
<path d="M1520 345 l0 -85 60 0 c47 0 60 3 60 15 0 9 -10 15 -22 16 -67 3 -63
-1 -66 72 -2 51 -6 67 -17 67 -12 0 -15 -17 -15 -85z"/>
<path d="M1690 345 l0 -85 60 0 c53 0 60 2 60 19 0 16 -5 19 -26 15 -54 -10
-64 1 -64 72 0 50 -3 64 -15 64 -12 0 -15 -16 -15 -85z"/>
</g>
</svg>
