<svg xmlns="http://www.w3.org/2000/svg" xmlns:xlink="http://www.w3.org/1999/xlink" width="1080" zoomAndPan="magnify" viewBox="0 0 810 809.999993" height="1080" preserveAspectRatio="xMidYMid meet" version="1.0"><defs><clipPath id="0b8faa0454"><path d="M 119.925781 158.851562 L 689.925781 158.851562 L 689.925781 728.851562 L 119.925781 728.851562 Z M 119.925781 158.851562 " clip-rule="nonzero"/></clipPath></defs><path fill="#327bd0" d="M 676.492188 226.726562 L 676.492188 498.222656 C 676.492188 500 676.40625 501.773438 676.230469 503.542969 C 676.054688 505.3125 675.796875 507.070312 675.449219 508.8125 C 675.101562 510.558594 674.667969 512.28125 674.152344 513.984375 C 673.636719 515.683594 673.039062 517.355469 672.359375 519 C 671.679688 520.644531 670.917969 522.25 670.082031 523.816406 C 669.242188 525.386719 668.328125 526.910156 667.339844 528.386719 C 666.351562 529.867188 665.292969 531.292969 664.167969 532.667969 C 663.039062 534.042969 661.84375 535.359375 660.585938 536.617188 C 659.332031 537.875 658.015625 539.066406 656.640625 540.195312 C 655.265625 541.324219 653.839844 542.382812 652.359375 543.367188 C 650.878906 544.355469 649.355469 545.269531 647.789062 546.109375 C 646.21875 546.945312 644.613281 547.707031 642.972656 548.386719 C 641.328125 549.066406 639.65625 549.664062 637.953125 550.183594 C 636.253906 550.699219 634.53125 551.128906 632.785156 551.476562 C 631.042969 551.824219 629.285156 552.085938 627.515625 552.257812 C 625.746094 552.433594 623.972656 552.519531 622.191406 552.519531 L 536.078125 552.519531 L 443.386719 459.828125 C 442.128906 458.570312 440.816406 457.378906 439.441406 456.25 C 438.066406 455.125 436.640625 454.066406 435.160156 453.078125 C 433.683594 452.089844 432.160156 451.175781 430.589844 450.339844 C 429.023438 449.5 427.417969 448.742188 425.773438 448.0625 C 424.128906 447.378906 422.457031 446.78125 420.757812 446.265625 C 419.054688 445.75 417.332031 445.316406 415.589844 444.972656 C 413.84375 444.625 412.085938 444.363281 410.316406 444.191406 C 408.546875 444.015625 406.773438 443.929688 404.996094 443.929688 C 403.21875 443.929688 401.445312 444.015625 399.675781 444.191406 C 397.90625 444.363281 396.148438 444.625 394.402344 444.972656 C 392.660156 445.316406 390.9375 445.75 389.234375 446.265625 C 387.535156 446.78125 385.863281 447.378906 384.21875 448.0625 C 382.574219 448.742188 380.96875 449.5 379.402344 450.339844 C 377.832031 451.175781 376.308594 452.089844 374.832031 453.078125 C 373.351562 454.066406 371.925781 455.125 370.550781 456.25 C 369.175781 457.378906 367.863281 458.570312 366.605469 459.828125 L 273.914062 552.519531 L 187.800781 552.519531 C 186.019531 552.519531 184.246094 552.433594 182.476562 552.257812 C 180.707031 552.085938 178.949219 551.824219 177.207031 551.476562 C 175.460938 551.128906 173.738281 550.699219 172.039062 550.183594 C 170.335938 549.664062 168.664062 549.066406 167.019531 548.386719 C 165.378906 547.707031 163.773438 546.945312 162.203125 546.109375 C 160.636719 545.269531 159.113281 544.355469 157.632812 543.367188 C 156.152344 542.382812 154.726562 541.324219 153.351562 540.195312 C 151.976562 539.066406 150.660156 537.875 149.40625 536.617188 C 148.148438 535.359375 146.953125 534.042969 145.824219 532.667969 C 144.699219 531.292969 143.640625 529.867188 142.652344 528.386719 C 141.664062 526.910156 140.75 525.386719 139.914062 523.816406 C 139.074219 522.25 138.3125 520.644531 137.632812 519 C 136.953125 517.355469 136.355469 515.683594 135.839844 513.984375 C 135.324219 512.28125 134.890625 510.558594 134.542969 508.8125 C 134.195312 507.070312 133.9375 505.3125 133.761719 503.542969 C 133.585938 501.773438 133.5 500 133.5 498.222656 L 133.5 226.726562 C 133.5 224.945312 133.585938 223.171875 133.761719 221.402344 C 133.9375 219.632812 134.195312 217.875 134.542969 216.132812 C 134.890625 214.386719 135.324219 212.664062 135.839844 210.964844 C 136.355469 209.261719 136.953125 207.589844 137.632812 205.945312 C 138.3125 204.304688 139.074219 202.699219 139.914062 201.128906 C 140.75 199.5625 141.664062 198.039062 142.652344 196.558594 C 143.640625 195.078125 144.699219 193.652344 145.824219 192.277344 C 146.953125 190.902344 148.148438 189.585938 149.40625 188.332031 C 150.660156 187.074219 151.976562 185.878906 153.351562 184.75 C 154.726562 183.625 156.152344 182.566406 157.632812 181.578125 C 159.113281 180.589844 160.636719 179.675781 162.203125 178.839844 C 163.773438 178 165.378906 177.238281 167.019531 176.558594 C 168.664062 175.878906 170.335938 175.28125 172.039062 174.765625 C 173.738281 174.25 175.460938 173.816406 177.207031 173.46875 C 178.949219 173.121094 180.707031 172.863281 182.476562 172.6875 C 184.246094 172.511719 186.019531 172.425781 187.800781 172.425781 L 622.191406 172.425781 C 623.972656 172.425781 625.746094 172.511719 627.515625 172.6875 C 629.285156 172.863281 631.042969 173.121094 632.785156 173.46875 C 634.53125 173.816406 636.253906 174.25 637.953125 174.765625 C 639.65625 175.28125 641.328125 175.878906 642.972656 176.558594 C 644.613281 177.238281 646.21875 178 647.789062 178.839844 C 649.355469 179.675781 650.878906 180.589844 652.359375 181.578125 C 653.839844 182.566406 655.265625 183.625 656.640625 184.75 C 658.015625 185.878906 659.332031 187.074219 660.585938 188.332031 C 661.84375 189.585938 663.039062 190.902344 664.167969 192.277344 C 665.292969 193.652344 666.351562 195.078125 667.339844 196.558594 C 668.328125 198.039062 669.242188 199.5625 670.082031 201.128906 C 670.917969 202.699219 671.679688 204.304688 672.359375 205.945312 C 673.039062 207.589844 673.636719 209.261719 674.152344 210.964844 C 674.667969 212.664062 675.101562 214.386719 675.449219 216.132812 C 675.796875 217.875 676.054688 219.632812 676.230469 221.402344 C 676.40625 223.171875 676.492188 224.945312 676.492188 226.726562 Z M 676.492188 226.726562 " fill-opacity="1" fill-rule="nonzero"/><path fill="#ffffff" d="M 459.296875 362.472656 C 459.296875 364.25 459.207031 366.027344 459.035156 367.796875 C 458.859375 369.566406 458.597656 371.324219 458.25 373.066406 C 457.90625 374.8125 457.472656 376.535156 456.957031 378.234375 C 456.441406 379.9375 455.84375 381.609375 455.160156 383.253906 C 454.480469 384.894531 453.722656 386.5 452.882812 388.070312 C 452.046875 389.636719 451.132812 391.160156 450.144531 392.640625 C 449.15625 394.117188 448.097656 395.546875 446.96875 396.921875 C 445.839844 398.296875 444.648438 399.609375 443.390625 400.867188 C 442.132812 402.125 440.816406 403.320312 439.441406 404.445312 C 438.070312 405.574219 436.640625 406.632812 435.164062 407.621094 C 433.683594 408.609375 432.160156 409.523438 430.59375 410.359375 C 429.023438 411.199219 427.417969 411.957031 425.777344 412.640625 C 424.132812 413.320312 422.460938 413.917969 420.757812 414.433594 C 419.054688 414.949219 417.332031 415.382812 415.589844 415.730469 C 413.84375 416.074219 412.089844 416.335938 410.316406 416.511719 C 408.546875 416.683594 406.773438 416.773438 404.996094 416.773438 C 403.21875 416.773438 401.445312 416.683594 399.675781 416.511719 C 397.902344 416.335938 396.148438 416.074219 394.402344 415.730469 C 392.660156 415.382812 390.9375 414.949219 389.234375 414.433594 C 387.53125 413.917969 385.859375 413.320312 384.214844 412.640625 C 382.574219 411.957031 380.96875 411.199219 379.398438 410.359375 C 377.832031 409.523438 376.308594 408.609375 374.828125 407.621094 C 373.351562 406.632812 371.921875 405.574219 370.550781 404.445312 C 369.175781 403.320312 367.859375 402.125 366.601562 400.867188 C 365.34375 399.609375 364.152344 398.296875 363.023438 396.921875 C 361.894531 395.546875 360.835938 394.117188 359.847656 392.640625 C 358.859375 391.160156 357.945312 389.636719 357.109375 388.070312 C 356.269531 386.5 355.511719 384.894531 354.832031 383.253906 C 354.148438 381.609375 353.550781 379.9375 353.035156 378.234375 C 352.519531 376.535156 352.085938 374.8125 351.742188 373.066406 C 351.394531 371.324219 351.132812 369.566406 350.957031 367.796875 C 350.785156 366.027344 350.695312 364.25 350.695312 362.472656 C 350.695312 360.695312 350.785156 358.921875 350.957031 357.152344 C 351.132812 355.382812 351.394531 353.625 351.742188 351.878906 C 352.085938 350.136719 352.519531 348.414062 353.035156 346.710938 C 353.550781 345.007812 354.148438 343.335938 354.832031 341.695312 C 355.511719 340.050781 356.269531 338.445312 357.109375 336.875 C 357.945312 335.308594 358.859375 333.785156 359.847656 332.304688 C 360.835938 330.828125 361.894531 329.402344 363.023438 328.027344 C 364.152344 326.652344 365.34375 325.335938 366.601562 324.078125 C 367.859375 322.820312 369.175781 321.628906 370.550781 320.5 C 371.921875 319.371094 373.351562 318.3125 374.828125 317.324219 C 376.308594 316.335938 377.832031 315.425781 379.398438 314.585938 C 380.96875 313.746094 382.574219 312.988281 384.214844 312.308594 C 385.859375 311.625 387.53125 311.027344 389.234375 310.511719 C 390.9375 309.996094 392.660156 309.5625 394.402344 309.21875 C 396.148438 308.871094 397.902344 308.609375 399.675781 308.4375 C 401.445312 308.261719 403.21875 308.175781 404.996094 308.175781 C 406.773438 308.175781 408.546875 308.261719 410.316406 308.4375 C 412.089844 308.609375 413.84375 308.871094 415.589844 309.21875 C 417.332031 309.5625 419.054688 309.996094 420.757812 310.511719 C 422.460938 311.027344 424.132812 311.625 425.777344 312.308594 C 427.417969 312.988281 429.023438 313.746094 430.59375 314.585938 C 432.160156 315.425781 433.683594 316.335938 435.164062 317.324219 C 436.640625 318.3125 438.070312 319.371094 439.441406 320.5 C 440.816406 321.628906 442.132812 322.820312 443.390625 324.078125 C 444.648438 325.335938 445.839844 326.652344 446.96875 328.027344 C 448.097656 329.402344 449.15625 330.828125 450.144531 332.304688 C 451.132812 333.785156 452.046875 335.308594 452.882812 336.875 C 453.722656 338.445312 454.480469 340.050781 455.160156 341.695312 C 455.84375 343.335938 456.441406 345.007812 456.957031 346.710938 C 457.472656 348.414062 457.90625 350.136719 458.25 351.878906 C 458.597656 353.625 458.859375 355.382812 459.035156 357.152344 C 459.207031 358.921875 459.296875 360.695312 459.296875 362.472656 Z M 608.617188 362.472656 C 608.617188 361.582031 608.53125 360.699219 608.355469 359.824219 C 608.183594 358.949219 607.925781 358.101562 607.585938 357.277344 C 607.242188 356.453125 606.824219 355.671875 606.328125 354.929688 C 605.835938 354.191406 605.273438 353.503906 604.640625 352.875 C 604.011719 352.246094 603.324219 351.679688 602.585938 351.1875 C 601.84375 350.691406 601.0625 350.273438 600.238281 349.933594 C 599.414062 349.589844 598.566406 349.332031 597.691406 349.160156 C 596.816406 348.984375 595.933594 348.898438 595.042969 348.898438 L 540.742188 348.898438 C 539.851562 348.898438 538.96875 348.984375 538.09375 349.160156 C 537.222656 349.332031 536.371094 349.589844 535.550781 349.933594 C 534.726562 350.273438 533.941406 350.691406 533.203125 351.1875 C 532.460938 351.679688 531.773438 352.246094 531.144531 352.875 C 530.515625 353.503906 529.953125 354.191406 529.457031 354.929688 C 528.960938 355.671875 528.542969 356.453125 528.203125 357.277344 C 527.859375 358.101562 527.605469 358.949219 527.429688 359.824219 C 527.257812 360.699219 527.167969 361.582031 527.167969 362.472656 C 527.167969 363.363281 527.257812 364.246094 527.429688 365.121094 C 527.605469 365.996094 527.859375 366.84375 528.203125 367.667969 C 528.542969 368.492188 528.960938 369.273438 529.457031 370.015625 C 529.953125 370.757812 530.515625 371.441406 531.144531 372.070312 C 531.773438 372.703125 532.460938 373.265625 533.203125 373.761719 C 533.941406 374.253906 534.726562 374.671875 535.550781 375.015625 C 536.371094 375.355469 537.222656 375.613281 538.09375 375.789062 C 538.96875 375.960938 539.851562 376.046875 540.742188 376.046875 L 595.042969 376.046875 C 595.933594 376.046875 596.816406 375.960938 597.691406 375.789062 C 598.566406 375.613281 599.414062 375.355469 600.238281 375.015625 C 601.0625 374.671875 601.84375 374.253906 602.585938 373.761719 C 603.324219 373.265625 604.011719 372.703125 604.640625 372.070312 C 605.273438 371.441406 605.835938 370.757812 606.328125 370.015625 C 606.824219 369.273438 607.242188 368.492188 607.585938 367.667969 C 607.925781 366.84375 608.183594 365.996094 608.355469 365.121094 C 608.53125 364.246094 608.617188 363.363281 608.617188 362.472656 Z M 282.824219 362.472656 C 282.824219 361.582031 282.734375 360.699219 282.5625 359.824219 C 282.386719 358.949219 282.132812 358.101562 281.789062 357.277344 C 281.449219 356.453125 281.03125 355.671875 280.535156 354.929688 C 280.039062 354.191406 279.476562 353.503906 278.847656 352.875 C 278.21875 352.246094 277.53125 351.679688 276.789062 351.1875 C 276.050781 350.691406 275.265625 350.273438 274.441406 349.933594 C 273.621094 349.589844 272.769531 349.332031 271.898438 349.160156 C 271.023438 348.984375 270.140625 348.898438 269.25 348.898438 L 214.949219 348.898438 C 214.058594 348.898438 213.175781 348.984375 212.300781 349.160156 C 211.425781 349.332031 210.578125 349.589844 209.753906 349.933594 C 208.929688 350.273438 208.148438 350.691406 207.40625 351.1875 C 206.667969 351.679688 205.980469 352.246094 205.351562 352.875 C 204.71875 353.503906 204.15625 354.191406 203.664062 354.929688 C 203.167969 355.671875 202.75 356.453125 202.40625 357.277344 C 202.066406 358.101562 201.808594 358.949219 201.636719 359.824219 C 201.460938 360.699219 201.375 361.582031 201.375 362.472656 C 201.375 363.363281 201.460938 364.246094 201.636719 365.121094 C 201.808594 365.996094 202.066406 366.84375 202.40625 367.667969 C 202.75 368.492188 203.167969 369.273438 203.664062 370.015625 C 204.15625 370.757812 204.71875 371.441406 205.351562 372.070312 C 205.980469 372.703125 206.667969 373.265625 207.40625 373.761719 C 208.148438 374.253906 208.929688 374.671875 209.753906 375.015625 C 210.578125 375.355469 211.425781 375.613281 212.300781 375.789062 C 213.175781 375.960938 214.058594 376.046875 214.949219 376.046875 L 269.25 376.046875 C 270.140625 376.046875 271.023438 375.960938 271.898438 375.789062 C 272.769531 375.613281 273.621094 375.355469 274.441406 375.015625 C 275.265625 374.671875 276.050781 374.253906 276.789062 373.761719 C 277.53125 373.265625 278.21875 372.703125 278.847656 372.070312 C 279.476562 371.441406 280.039062 370.757812 280.535156 370.015625 C 281.03125 369.273438 281.449219 368.492188 281.789062 367.667969 C 282.132812 366.84375 282.386719 365.996094 282.5625 365.121094 C 282.734375 364.246094 282.824219 363.363281 282.824219 362.472656 Z M 282.824219 362.472656 " fill-opacity="1" fill-rule="nonzero"/><g clip-path="url(#0b8faa0454)"><path fill="#aac755" d="M 690.066406 226.726562 L 690.066406 498.222656 C 690.066406 499.332031 690.039062 500.441406 689.980469 501.550781 C 689.925781 502.660156 689.84375 503.765625 689.734375 504.871094 C 689.625 505.976562 689.488281 507.078125 689.324219 508.175781 C 689.160156 509.277344 688.96875 510.371094 688.75 511.457031 C 688.535156 512.546875 688.289062 513.628906 688.019531 514.707031 C 687.75 515.785156 687.453125 516.855469 687.128906 517.917969 C 686.808594 518.980469 686.457031 520.035156 686.082031 521.078125 C 685.707031 522.125 685.308594 523.160156 684.882812 524.183594 C 684.457031 525.210938 684.007812 526.226562 683.53125 527.230469 C 683.058594 528.234375 682.558594 529.226562 682.035156 530.203125 C 681.507812 531.183594 680.960938 532.148438 680.390625 533.101562 C 679.820312 534.054688 679.226562 534.992188 678.609375 535.914062 C 677.992188 536.839844 677.351562 537.746094 676.691406 538.636719 C 676.027344 539.53125 675.34375 540.40625 674.640625 541.261719 C 673.9375 542.121094 673.210938 542.960938 672.464844 543.785156 C 671.71875 544.609375 670.953125 545.410156 670.167969 546.195312 C 669.382812 546.980469 668.578125 547.746094 667.757812 548.492188 C 666.933594 549.238281 666.09375 549.964844 665.234375 550.667969 C 664.375 551.375 663.5 552.058594 662.609375 552.71875 C 661.71875 553.378906 660.808594 554.019531 659.886719 554.636719 C 658.964844 555.253906 658.027344 555.847656 657.074219 556.417969 C 656.121094 556.992188 655.15625 557.539062 654.175781 558.0625 C 653.195312 558.585938 652.203125 559.085938 651.203125 559.5625 C 650.199219 560.035156 649.183594 560.484375 648.15625 560.910156 C 647.132812 561.335938 646.09375 561.738281 645.050781 562.113281 C 644.003906 562.488281 642.949219 562.835938 641.886719 563.160156 C 640.824219 563.480469 639.757812 563.777344 638.679688 564.046875 C 637.601562 564.320312 636.519531 564.5625 635.429688 564.78125 C 634.339844 564.996094 633.246094 565.1875 632.148438 565.351562 C 631.050781 565.515625 629.949219 565.652344 628.84375 565.761719 C 627.738281 565.871094 626.632812 565.953125 625.523438 566.011719 C 624.414062 566.066406 623.304688 566.09375 622.191406 566.09375 L 549.652344 566.09375 L 522.503906 538.945312 L 622.191406 538.945312 C 623.527344 538.945312 624.855469 538.878906 626.183594 538.746094 C 627.507812 538.613281 628.828125 538.417969 630.132812 538.15625 C 631.441406 537.894531 632.734375 537.570312 634.007812 537.179688 C 635.285156 536.792969 636.539062 536.34375 637.769531 535.832031 C 639 535.320312 640.207031 534.753906 641.378906 534.125 C 642.554688 533.492188 643.699219 532.808594 644.808594 532.066406 C 645.914062 531.328125 646.984375 530.535156 648.015625 529.6875 C 649.046875 528.839844 650.03125 527.945312 650.976562 527.003906 C 651.917969 526.0625 652.8125 525.074219 653.660156 524.042969 C 654.503906 523.011719 655.296875 521.945312 656.039062 520.835938 C 656.78125 519.726562 657.464844 518.585938 658.09375 517.410156 C 658.722656 516.234375 659.292969 515.03125 659.804688 513.796875 C 660.316406 512.566406 660.765625 511.3125 661.152344 510.039062 C 661.539062 508.761719 661.867188 507.46875 662.125 506.164062 C 662.386719 504.855469 662.585938 503.539062 662.714844 502.210938 C 662.847656 500.882812 662.914062 499.554688 662.917969 498.222656 L 662.917969 226.726562 C 662.914062 225.390625 662.847656 224.0625 662.714844 222.734375 C 662.585938 221.410156 662.386719 220.089844 662.125 218.785156 C 661.867188 217.476562 661.539062 216.183594 661.152344 214.910156 C 660.765625 213.632812 660.316406 212.378906 659.804688 211.148438 C 659.292969 209.917969 658.722656 208.714844 658.09375 207.539062 C 657.464844 206.363281 656.78125 205.21875 656.039062 204.109375 C 655.296875 203.003906 654.503906 201.933594 653.660156 200.902344 C 652.8125 199.871094 651.917969 198.886719 650.976562 197.941406 C 650.03125 197 649.046875 196.105469 648.015625 195.257812 C 646.984375 194.414062 645.914062 193.621094 644.808594 192.878906 C 643.699219 192.136719 642.554688 191.453125 641.378906 190.824219 C 640.207031 190.195312 639 189.625 637.769531 189.113281 C 636.539062 188.601562 635.285156 188.152344 634.007812 187.765625 C 632.734375 187.378906 631.441406 187.050781 630.132812 186.792969 C 628.828125 186.53125 627.507812 186.332031 626.183594 186.203125 C 624.855469 186.070312 623.527344 186.003906 622.191406 186 L 187.800781 186 C 186.464844 186.003906 185.136719 186.070312 183.808594 186.203125 C 182.484375 186.332031 181.164062 186.53125 179.859375 186.792969 C 178.550781 187.050781 177.257812 187.378906 175.984375 187.765625 C 174.707031 188.152344 173.453125 188.601562 172.222656 189.113281 C 170.992188 189.625 169.789062 190.195312 168.613281 190.824219 C 167.4375 191.453125 166.292969 192.136719 165.183594 192.878906 C 164.078125 193.621094 163.007812 194.414062 161.976562 195.257812 C 160.945312 196.105469 159.960938 197 159.015625 197.941406 C 158.074219 198.886719 157.179688 199.871094 156.332031 200.902344 C 155.488281 201.933594 154.695312 203.003906 153.953125 204.109375 C 153.210938 205.21875 152.527344 206.363281 151.898438 207.539062 C 151.269531 208.714844 150.699219 209.917969 150.1875 211.148438 C 149.675781 212.378906 149.226562 213.632812 148.839844 214.910156 C 148.453125 216.183594 148.125 217.476562 147.867188 218.785156 C 147.605469 220.089844 147.40625 221.410156 147.277344 222.734375 C 147.144531 224.0625 147.078125 225.390625 147.074219 226.726562 L 147.074219 498.222656 C 147.078125 499.554688 147.144531 500.882812 147.277344 502.210938 C 147.40625 503.539062 147.605469 504.855469 147.867188 506.164062 C 148.125 507.46875 148.453125 508.761719 148.839844 510.039062 C 149.226562 511.3125 149.675781 512.566406 150.1875 513.796875 C 150.699219 515.03125 151.269531 516.234375 151.898438 517.410156 C 152.527344 518.585938 153.210938 519.726562 153.953125 520.835938 C 154.695312 521.945312 155.488281 523.011719 156.332031 524.042969 C 157.179688 525.074219 158.074219 526.0625 159.015625 527.003906 C 159.960938 527.945312 160.945312 528.839844 161.976562 529.6875 C 163.007812 530.535156 164.078125 531.328125 165.183594 532.066406 C 166.292969 532.808594 167.4375 533.492188 168.613281 534.125 C 169.789062 534.753906 170.992188 535.320312 172.222656 535.832031 C 173.453125 536.34375 174.707031 536.792969 175.984375 537.179688 C 177.257812 537.570312 178.550781 537.894531 179.859375 538.15625 C 181.164062 538.417969 182.484375 538.613281 183.808594 538.746094 C 185.136719 538.878906 186.464844 538.945312 187.800781 538.945312 L 287.488281 538.945312 L 260.339844 566.09375 L 187.800781 566.09375 C 186.6875 566.09375 185.578125 566.066406 184.46875 566.011719 C 183.359375 565.953125 182.253906 565.871094 181.148438 565.761719 C 180.042969 565.652344 178.941406 565.515625 177.84375 565.351562 C 176.746094 565.1875 175.652344 564.996094 174.5625 564.78125 C 173.472656 564.5625 172.390625 564.320312 171.3125 564.046875 C 170.234375 563.777344 169.167969 563.480469 168.105469 563.160156 C 167.042969 562.835938 165.988281 562.488281 164.941406 562.113281 C 163.898438 561.738281 162.859375 561.335938 161.835938 560.910156 C 160.808594 560.484375 159.792969 560.035156 158.789062 559.5625 C 157.789062 559.085938 156.796875 558.585938 155.816406 558.0625 C 154.835938 557.539062 153.871094 556.992188 152.917969 556.417969 C 151.964844 555.847656 151.027344 555.253906 150.105469 554.636719 C 149.183594 554.019531 148.273438 553.378906 147.382812 552.71875 C 146.492188 552.058594 145.617188 551.375 144.757812 550.667969 C 143.898438 549.964844 143.058594 549.238281 142.234375 548.492188 C 141.414062 547.746094 140.609375 546.980469 139.824219 546.195312 C 139.039062 545.410156 138.273438 544.609375 137.527344 543.785156 C 136.78125 542.960938 136.054688 542.121094 135.351562 541.261719 C 134.648438 540.40625 133.964844 539.53125 133.300781 538.636719 C 132.640625 537.746094 132 536.839844 131.382812 535.914062 C 130.765625 534.992188 130.171875 534.054688 129.601562 533.101562 C 129.03125 532.148438 128.484375 531.183594 127.957031 530.203125 C 127.433594 529.226562 126.933594 528.234375 126.460938 527.230469 C 125.984375 526.226562 125.535156 525.210938 125.109375 524.183594 C 124.683594 523.160156 124.285156 522.125 123.910156 521.078125 C 123.535156 520.035156 123.183594 518.980469 122.863281 517.917969 C 122.539062 516.855469 122.242188 515.785156 121.972656 514.707031 C 121.703125 513.628906 121.457031 512.546875 121.242188 511.457031 C 121.023438 510.371094 120.832031 509.277344 120.667969 508.175781 C 120.503906 507.078125 120.367188 505.976562 120.257812 504.871094 C 120.148438 503.765625 120.066406 502.660156 120.011719 501.550781 C 119.953125 500.441406 119.925781 499.332031 119.925781 498.222656 L 119.925781 226.726562 C 119.925781 225.613281 119.953125 224.503906 120.011719 223.394531 C 120.066406 222.285156 120.148438 221.179688 120.257812 220.074219 C 120.367188 218.96875 120.503906 217.867188 120.667969 216.769531 C 120.832031 215.671875 121.023438 214.578125 121.242188 213.488281 C 121.457031 212.398438 121.703125 211.316406 121.972656 210.238281 C 122.242188 209.160156 122.539062 208.09375 122.863281 207.03125 C 123.183594 205.96875 123.535156 204.914062 123.910156 203.867188 C 124.285156 202.824219 124.683594 201.785156 125.109375 200.761719 C 125.535156 199.734375 125.984375 198.71875 126.460938 197.714844 C 126.933594 196.714844 127.433594 195.722656 127.957031 194.742188 C 128.484375 193.761719 129.03125 192.796875 129.601562 191.84375 C 130.171875 190.890625 130.765625 189.953125 131.382812 189.03125 C 132 188.109375 132.640625 187.199219 133.300781 186.308594 C 133.964844 185.417969 134.648438 184.542969 135.351562 183.683594 C 136.054688 182.824219 136.78125 181.984375 137.527344 181.160156 C 138.273438 180.339844 139.039062 179.535156 139.824219 178.75 C 140.609375 177.964844 141.414062 177.199219 142.234375 176.453125 C 143.058594 175.707031 143.898438 174.980469 144.757812 174.277344 C 145.617188 173.574219 146.492188 172.890625 147.382812 172.226562 C 148.273438 171.566406 149.183594 170.925781 150.105469 170.308594 C 151.027344 169.691406 151.964844 169.097656 152.917969 168.527344 C 153.871094 167.957031 154.835938 167.410156 155.816406 166.882812 C 156.796875 166.359375 157.789062 165.859375 158.789062 165.386719 C 159.792969 164.910156 160.808594 164.460938 161.835938 164.035156 C 162.859375 163.609375 163.898438 163.210938 164.941406 162.835938 C 165.988281 162.460938 167.042969 162.109375 168.105469 161.789062 C 169.167969 161.464844 170.234375 161.167969 171.3125 160.898438 C 172.390625 160.628906 173.472656 160.382812 174.5625 160.167969 C 175.652344 159.949219 176.746094 159.757812 177.84375 159.59375 C 178.941406 159.429688 180.042969 159.292969 181.148438 159.183594 C 182.253906 159.074219 183.359375 158.992188 184.46875 158.9375 C 185.578125 158.882812 186.6875 158.851562 187.800781 158.851562 L 622.191406 158.851562 C 623.304688 158.851562 624.414062 158.882812 625.523438 158.9375 C 626.632812 158.992188 627.738281 159.074219 628.84375 159.183594 C 629.949219 159.292969 631.050781 159.429688 632.148438 159.59375 C 633.246094 159.757812 634.339844 159.949219 635.429688 160.167969 C 636.519531 160.382812 637.601562 160.628906 638.679688 160.898438 C 639.757812 161.167969 640.824219 161.464844 641.886719 161.789062 C 642.949219 162.109375 644.003906 162.460938 645.050781 162.835938 C 646.09375 163.210938 647.132812 163.609375 648.15625 164.035156 C 649.183594 164.460938 650.199219 164.910156 651.203125 165.386719 C 652.203125 165.859375 653.195312 166.359375 654.175781 166.882812 C 655.15625 167.410156 656.121094 167.957031 657.074219 168.527344 C 658.027344 169.097656 658.964844 169.691406 659.886719 170.308594 C 660.808594 170.925781 661.71875 171.566406 662.609375 172.226562 C 663.5 172.890625 664.375 173.574219 665.234375 174.277344 C 666.09375 174.980469 666.933594 175.707031 667.757812 176.453125 C 668.578125 177.199219 669.382812 177.964844 670.167969 178.75 C 670.953125 179.535156 671.71875 180.339844 672.464844 181.160156 C 673.210938 181.984375 673.9375 182.824219 674.640625 183.683594 C 675.34375 184.542969 676.027344 185.417969 676.691406 186.308594 C 677.351562 187.199219 677.992188 188.109375 678.609375 189.03125 C 679.226562 189.953125 679.820312 190.890625 680.390625 191.84375 C 680.960938 192.796875 681.507812 193.761719 682.035156 194.742188 C 682.558594 195.722656 683.058594 196.714844 683.53125 197.714844 C 684.007812 198.71875 684.457031 199.734375 684.882812 200.761719 C 685.308594 201.785156 685.707031 202.824219 686.082031 203.867188 C 686.457031 204.914062 686.808594 205.96875 687.128906 207.03125 C 687.453125 208.09375 687.75 209.160156 688.019531 210.238281 C 688.289062 211.316406 688.535156 212.398438 688.75 213.488281 C 688.96875 214.578125 689.160156 215.671875 689.324219 216.769531 C 689.488281 217.867188 689.625 218.96875 689.734375 220.074219 C 689.84375 221.179688 689.925781 222.285156 689.980469 223.394531 C 690.039062 224.503906 690.066406 225.613281 690.066406 226.726562 Z M 414.59375 488.625 C 413.964844 487.992188 413.277344 487.429688 412.535156 486.9375 C 411.796875 486.441406 411.011719 486.023438 410.191406 485.683594 C 409.367188 485.339844 408.519531 485.082031 407.644531 484.910156 C 406.769531 484.734375 405.886719 484.648438 404.996094 484.648438 C 404.105469 484.648438 403.222656 484.734375 402.347656 484.910156 C 401.472656 485.082031 400.625 485.339844 399.800781 485.683594 C 398.980469 486.023438 398.195312 486.441406 397.457031 486.9375 C 396.714844 487.429688 396.027344 487.992188 395.398438 488.625 L 286.800781 597.222656 C 286.1875 597.855469 285.644531 598.542969 285.164062 599.285156 C 284.6875 600.023438 284.28125 600.804688 283.957031 601.621094 C 283.628906 602.441406 283.386719 603.28125 283.222656 604.148438 C 283.058594 605.015625 282.984375 605.890625 282.988281 606.769531 C 282.996094 607.652344 283.089844 608.523438 283.269531 609.386719 C 283.445312 610.25 283.703125 611.089844 284.046875 611.902344 C 284.386719 612.714844 284.800781 613.488281 285.292969 614.21875 C 285.785156 614.949219 286.34375 615.628906 286.964844 616.25 C 287.589844 616.875 288.265625 617.433594 289 617.921875 C 289.730469 618.414062 290.503906 618.832031 291.316406 619.171875 C 292.128906 619.511719 292.964844 619.773438 293.828125 619.949219 C 294.691406 620.125 295.566406 620.21875 296.445312 620.226562 C 297.328125 620.234375 298.203125 620.15625 299.066406 619.996094 C 299.933594 619.832031 300.777344 619.585938 301.59375 619.261719 C 302.414062 618.933594 303.195312 618.53125 303.933594 618.054688 C 304.675781 617.574219 305.359375 617.027344 305.996094 616.417969 L 391.421875 530.992188 L 391.421875 715.417969 C 391.421875 716.308594 391.507812 717.191406 391.683594 718.066406 C 391.855469 718.941406 392.113281 719.789062 392.453125 720.613281 C 392.796875 721.4375 393.214844 722.21875 393.710938 722.960938 C 394.203125 723.699219 394.765625 724.386719 395.398438 725.015625 C 396.027344 725.648438 396.714844 726.210938 397.453125 726.703125 C 398.195312 727.199219 398.976562 727.617188 399.800781 727.957031 C 400.625 728.300781 401.472656 728.558594 402.347656 728.730469 C 403.222656 728.90625 404.105469 728.992188 404.996094 728.992188 C 405.886719 728.992188 406.769531 728.90625 407.644531 728.730469 C 408.519531 728.558594 409.367188 728.300781 410.191406 727.957031 C 411.015625 727.617188 411.796875 727.199219 412.539062 726.703125 C 413.277344 726.210938 413.964844 725.648438 414.59375 725.015625 C 415.226562 724.386719 415.789062 723.699219 416.28125 722.960938 C 416.777344 722.21875 417.195312 721.4375 417.539062 720.613281 C 417.878906 719.789062 418.136719 718.941406 418.308594 718.066406 C 418.484375 717.191406 418.570312 716.308594 418.570312 715.417969 L 418.570312 530.992188 L 503.996094 616.417969 C 504.632812 617.027344 505.316406 617.574219 506.058594 618.054688 C 506.796875 618.53125 507.578125 618.933594 508.398438 619.261719 C 509.214844 619.585938 510.058594 619.832031 510.925781 619.996094 C 511.789062 620.15625 512.664062 620.234375 513.546875 620.226562 C 514.425781 620.21875 515.300781 620.128906 516.164062 619.949219 C 517.027344 619.773438 517.863281 619.511719 518.675781 619.171875 C 519.488281 618.832031 520.261719 618.414062 520.996094 617.921875 C 521.726562 617.433594 522.402344 616.875 523.027344 616.25 C 523.648438 615.628906 524.207031 614.949219 524.699219 614.21875 C 525.191406 613.488281 525.605469 612.714844 525.945312 611.902344 C 526.289062 611.089844 526.546875 610.25 526.722656 609.386719 C 526.902344 608.523438 526.996094 607.652344 527.003906 606.769531 C 527.011719 605.890625 526.933594 605.015625 526.769531 604.148438 C 526.605469 603.28125 526.363281 602.441406 526.035156 601.621094 C 525.710938 600.804688 525.308594 600.023438 524.828125 599.28125 C 524.347656 598.542969 523.804688 597.855469 523.191406 597.222656 Z M 414.59375 488.625 " fill-opacity="1" fill-rule="nonzero"/></g></svg>