<svg xmlns="http://www.w3.org/2000/svg" viewBox="0 0 838.65 618.63"><defs><style>.cls-1,.cls-2,.cls-3{fill:#26a9e0;}.cls-2{opacity:0.72;}.cls-3{opacity:0.51;}</style></defs><g id="Layer_2" data-name="Layer 2"><g id="Layer_1-2" data-name="Layer 1"><path class="cls-1" d="M474.39,74.09H111.76c-3.44,0-6.85.16-10.21.47A111.68,111.68,0,0,0,0,185.86v321A111.77,111.77,0,0,0,111.76,618.63H474.39a111.67,111.67,0,0,0,94.73-52.44c.23-.36.46-.72.68-1.08a111.3,111.3,0,0,0,10-21,108.11,108.11,0,0,0,3.5-12,109.49,109.49,0,0,0,2.62-18.15c.16-2.32.23-4.66.23-7v-321A111.77,111.77,0,0,0,474.39,74.09ZM434.06,283.82a45.59,45.59,0,1,1-45.59,45.59A45.59,45.59,0,0,1,434.06,283.82Zm-151.24,0a45.59,45.59,0,1,1-45.59,45.59A45.59,45.59,0,0,1,282.82,283.82ZM95.2,300.59a45.61,45.61,0,1,1-10.26,28.82A45.49,45.49,0,0,1,95.2,300.59Z"/><path class="cls-2" d="M518.69,32.93H156.07A111.72,111.72,0,0,0,44.3,144.69v321A111.76,111.76,0,0,0,156.07,577.46H518.69a111.34,111.34,0,0,0,48.84-11.21c.76-.37,1.52-.75,2.27-1.14a111.8,111.8,0,0,0,32.73-25.51,107.94,107.94,0,0,0,6.82-8.53,111.33,111.33,0,0,0,21.11-65.37v-321A111.77,111.77,0,0,0,518.69,32.93ZM434.06,375a45.59,45.59,0,1,1,45.58-45.59A45.59,45.59,0,0,1,434.06,375ZM282.82,283.82a45.59,45.59,0,1,1-45.59,45.59A45.59,45.59,0,0,1,282.82,283.82ZM95.2,300.59a45.61,45.61,0,1,1-10.26,28.82A45.49,45.49,0,0,1,95.2,300.59Z"/><path class="cls-2" d="M767,525.22,494.94,535.31a14.41,14.41,0,0,1-13.63-20.42L589,280.09a14.42,14.42,0,0,1,24.74-2.5L778.13,502.31A14.41,14.41,0,0,1,767,525.22Z"/><path class="cls-3" d="M569.59,0H207A111.68,111.68,0,0,0,95.2,111.77V300.59a45.59,45.59,0,1,1,0,57.64v74.54A111.76,111.76,0,0,0,207,544.54H569.59c3.45,0,6.85-.16,10.22-.47a110.9,110.9,0,0,0,44-13.54,111.68,111.68,0,0,0,57.56-97.76v-321A111.77,111.77,0,0,0,569.59,0ZM282.82,375a45.59,45.59,0,1,1,45.59-45.59A45.59,45.59,0,0,1,282.82,375Zm105.65-45.59A45.59,45.59,0,1,1,434.06,375,45.59,45.59,0,0,1,388.47,329.41Z"/><path class="cls-3" d="M824.75,505,552.66,515.11A14.42,14.42,0,0,1,539,494.69L646.73,259.9a14.41,14.41,0,0,1,24.74-2.5L835.85,482.11A14.41,14.41,0,0,1,824.75,505Z"/><path class="cls-1" d="M701.67,561.28,429.58,571.36A14.41,14.41,0,0,1,415.94,551l107.71-234.8a14.42,14.42,0,0,1,24.74-2.5L712.77,538.36A14.42,14.42,0,0,1,701.67,561.28Z"/></g></g></svg>