<?xml version="1.0" encoding="iso-8859-1"?>
<!-- Uploaded to: SVG Repo, www.svgrepo.com, Generator: SVG Repo Mixer Tools -->
<svg version="1.1" id="Layer_1" xmlns="http://www.w3.org/2000/svg" xmlns:xlink="http://www.w3.org/1999/xlink" 
	 viewBox="0 0 512.001 512.001" xml:space="preserve">
<path style="fill:#009AD2;" d="M200.932,299.986c9.098-21.429,30.288-36.393,55.069-36.393c33.041,0,59.857,26.816,59.857,59.857
	c16.521,0,29.929,13.408,29.929,29.929s-13.408,29.929-29.929,29.929c-4.908,0-114.567,0-119.714,0c-23.105,0-41.9-18.795-41.9-41.9
	c0-23.105,18.795-41.9,41.9-41.9C197.819,299.508,199.376,299.866,200.932,299.986z"/>
<path style="fill:#445764;" d="M256.001,78.037c16.521,0,29.929,13.408,29.929,29.929s-13.408,29.929-29.929,29.929
	s-29.929-13.408-29.929-29.929S239.48,78.037,256.001,78.037z"/>
<path style="fill:#E7ECED;" d="M34.529,215.708L256.001,12.194l221.471,203.514h-35.914H70.443H34.529z M256.001,137.893
	c16.521,0,29.929-13.408,29.929-29.929s-13.408-29.929-29.929-29.929s-29.929,13.408-29.929,29.929S239.48,137.893,256.001,137.893z
	"/>
<path style="fill:#445764;" d="M70.443,503.021V215.707h371.114v287.314H70.443z M315.858,383.307
	c16.521,0,29.929-13.408,29.929-29.929s-13.408-29.929-29.929-29.929c0-33.041-26.816-59.857-59.857-59.857
	c-24.781,0-45.97,14.964-55.069,36.393c-1.556-0.12-3.113-0.479-4.789-0.479c-23.105,0-41.9,18.795-41.9,41.9
	c0,23.105,18.795,41.9,41.9,41.9C201.291,383.307,310.949,383.307,315.858,383.307z"/>
<path style="fill:#B2B6B8;" d="M226.072,107.966c0-16.474,13.335-29.839,29.792-29.914V12.319L34.529,215.708h35.914h185.421V137.88
	C239.407,137.803,226.072,124.438,226.072,107.966z"/>
<path d="M450.536,224.687h49.976L256.001,0L11.489,224.687h49.976v269.357H22.558v17.957h466.886v-17.957h-38.907V224.687z
	 M57.569,206.73l26.056-23.943h262.161V164.83h-242.62L256.001,24.387l198.431,182.342H57.569V206.73z M79.422,272.573h62.85
	v-17.957h-62.85v-29.929h353.157v29.929h-62.85v17.957h62.85v221.471H79.422L79.422,272.573L79.422,272.573z"/>
<path d="M256.001,69.057c-21.454,0-38.907,17.454-38.907,38.907s17.453,38.907,38.907,38.907c21.454,0,38.907-17.454,38.907-38.907
	S277.455,69.057,256.001,69.057z M256.001,128.914c-11.551,0-20.95-9.399-20.95-20.95s9.399-20.95,20.95-20.95
	s20.95,9.399,20.95,20.95S267.552,128.914,256.001,128.914z"/>
<path d="M315.858,392.286c21.454,0,38.907-17.454,38.907-38.907c0-18.531-13.021-34.077-30.395-37.97
	c-3.995-34.181-33.133-60.795-68.369-60.795c-25.456,0-48.527,13.901-60.468,35.918c-27.775,0.328-50.268,23.025-50.268,50.875
	c0,28.055,22.824,50.879,50.879,50.879h50.879v29.929h-68.836v17.957h155.629v-17.957h-68.836v-29.929H315.858z M163.222,341.407
	c0-18.153,14.769-32.921,32.921-32.921c0.413,0,10.532,0.948,10.532,0.948l2.52-5.938c7.975-18.786,26.348-30.923,46.805-30.923
	c28.055,0,50.879,22.824,50.879,50.879v8.979h8.979c11.551,0,20.95,9.399,20.95,20.95c0,11.551-9.399,20.95-20.95,20.95H196.143
	C177.991,374.329,163.222,359.561,163.222,341.407z"/>
<g>
	<rect x="232.054" y="302.506" style="fill:#FFFFFF;" width="23.943" height="17.957"/>
	<rect x="208.111" y="326.449" style="fill:#FFFFFF;" width="23.943" height="17.957"/>
</g>
<rect x="351.768" y="422.22" width="23.943" height="17.957"/>
<rect x="136.283" y="422.22" width="23.943" height="17.957"/>
<rect x="100.368" y="446.163" style="fill:#FFFFFF;" width="23.943" height="17.957"/>
<rect x="387.683" y="446.163" width="23.943" height="17.957"/>
<rect x="387.683" y="290.535" style="fill:#FFFFFF;" width="23.943" height="17.957"/>
<rect x="100.368" y="290.535" width="23.943" height="17.957"/>
</svg>