<?xml version="1.0" encoding="utf-8"?><!-- Uploaded to: SVG Repo, www.svgrepo.com, Generator: SVG Repo Mixer Tools -->
<svg fill="#000000" width="800px" height="800px" viewBox="0 0 24 24" id="mobile-payment-dollar-2" data-name="Flat Line" xmlns="http://www.w3.org/2000/svg" class="icon flat-line"><path id="secondary" d="M18,3H15l-.5,2h-3L11,3H8A1,1,0,0,0,7,4V6a8,8,0,0,1,3.37,15H18a1,1,0,0,0,1-1V4A1,1,0,0,0,18,3Z" style="fill: rgb(44, 169, 188); stroke-width: 2;"></path><path id="primary" d="M9,11H6.5A1.5,1.5,0,0,0,5,12.5H5A1.5,1.5,0,0,0,6.5,14h1A1.5,1.5,0,0,1,9,15.5H9A1.5,1.5,0,0,1,7.5,17H5" style="fill: none; stroke: rgb(0, 0, 0); stroke-linecap: round; stroke-linejoin: round; stroke-width: 2;"></path><path id="primary-2" data-name="primary" d="M7,6V4A1,1,0,0,1,8,3H18a1,1,0,0,1,1,1V20a1,1,0,0,1-1,1H10" style="fill: none; stroke: rgb(0, 0, 0); stroke-linecap: round; stroke-linejoin: round; stroke-width: 2;"></path><path id="primary-3" data-name="primary" d="M7,11V10m0,8V17M11.5,5h3L15,3H11Z" style="fill: none; stroke: rgb(0, 0, 0); stroke-linecap: round; stroke-linejoin: round; stroke-width: 2;"></path></svg>