<?xml version="1.0" encoding="iso-8859-1"?>
<!-- Uploaded to: SVG Repo, www.svgrepo.com, Generator: SVG Repo Mixer Tools -->
<svg height="800px" width="800px" version="1.1" id="Layer_1" xmlns="http://www.w3.org/2000/svg" xmlns:xlink="http://www.w3.org/1999/xlink" 
	 viewBox="0 0 512 512" xml:space="preserve">
<path style="fill:#547475;" d="M351.215,8.084h-40.122h-24.726h-13.065h-34.603h-5.52h-24.726h-47.668
	c-28.511,0-51.629,23.115-51.629,51.63v143.024V309.26v143.025c0,28.515,23.118,51.63,51.629,51.63h47.668h24.726h5.52h34.603
	h13.065h24.726h40.122c28.516,0,51.629-23.115,51.629-51.63V309.261V202.739V59.714C402.844,31.2,379.73,8.084,351.215,8.084z"/>
<polyline style="fill:#53CAF9;" points="346.44,416.013 109.156,416.013 109.156,78.996 401.768,78.996 401.768,416.013 
	371.231,416.013 "/>
<g>
	<path style="fill:#A8E2EF;" d="M199.481,192.471c0,6.13-4.969,11.099-11.1,11.099h-22.198c-6.131,0-11.1-4.969-11.1-11.099v-22.199
		c0-6.13,4.969-11.099,11.1-11.099h22.198c6.131,0,11.1,4.969,11.1,11.099V192.471z"/>
	<path style="fill:#A8E2EF;" d="M199.481,266.318c0,6.13-4.969,11.099-11.1,11.099h-22.198c-6.131,0-11.1-4.969-11.1-11.099v-22.199
		c0-6.131,4.969-11.099,11.1-11.099h22.198c6.131,0,11.1,4.969,11.1,11.099V266.318z"/>
	<path style="fill:#A8E2EF;" d="M199.481,340.164c0,6.13-4.969,11.099-11.1,11.099h-22.198c-6.131,0-11.1-4.969-11.1-11.099v-22.199
		c0-6.13,4.969-11.099,11.1-11.099h22.198c6.131,0,11.1,4.969,11.1,11.099V340.164z"/>
	<path style="fill:#A8E2EF;" d="M275.182,192.471c0,6.13-4.969,11.099-11.1,11.099h-22.198c-6.131,0-11.1-4.969-11.1-11.099v-22.199
		c0-6.13,4.969-11.099,11.1-11.099h22.198c6.131,0,11.1,4.969,11.1,11.099V192.471z"/>
	<path style="fill:#A8E2EF;" d="M275.182,266.318c0,6.13-4.969,11.099-11.1,11.099h-22.198c-6.131,0-11.1-4.969-11.1-11.099v-22.199
		c0-6.131,4.969-11.099,11.1-11.099h22.198c6.131,0,11.1,4.969,11.1,11.099V266.318z"/>
	<path style="fill:#A8E2EF;" d="M275.182,340.164c0,6.13-4.969,11.099-11.1,11.099h-22.198c-6.131,0-11.1-4.969-11.1-11.099v-22.199
		c0-6.13,4.969-11.099,11.1-11.099h22.198c6.131,0,11.1,4.969,11.1,11.099V340.164z"/>
	<path style="fill:#A8E2EF;" d="M350.883,192.471c0,6.13-4.969,11.099-11.1,11.099h-22.198c-6.131,0-11.1-4.969-11.1-11.099v-22.199
		c0-6.13,4.969-11.099,11.1-11.099h22.198c6.131,0,11.1,4.969,11.1,11.099V192.471z"/>
	<path style="fill:#A8E2EF;" d="M350.883,266.318c0,6.13-4.969,11.099-11.1,11.099h-22.198c-6.131,0-11.1-4.969-11.1-11.099v-22.199
		c0-6.131,4.969-11.099,11.1-11.099h22.198c6.131,0,11.1,4.969,11.1,11.099V266.318z"/>
	<path style="fill:#A8E2EF;" d="M350.883,340.164c0,6.13-4.969,11.099-11.1,11.099h-22.198c-6.131,0-11.1-4.969-11.1-11.099v-22.199
		c0-6.13,4.969-11.099,11.1-11.099h22.198c6.131,0,11.1,4.969,11.1,11.099V340.164z"/>
</g>
<path style="fill:#698F92;" d="M301.269,459.315c0,7.143-5.792,12.935-12.935,12.935h-64.672c-7.143,0-12.933-5.792-12.933-12.935
	l0,0c0-7.143,5.789-12.934,12.933-12.934h64.672C295.478,446.38,301.269,452.171,301.269,459.315L301.269,459.315z"/>
<g style="opacity:0.2;">
	<path style="fill:#231F20;" d="M134.421,452.286V309.261V202.739V59.714c0-28.515,23.118-51.63,51.629-51.63h-25.265
		c-28.511,0-51.629,23.115-51.629,51.63v143.024V309.26v143.025c0,28.515,23.118,51.63,51.629,51.63h25.265
		C157.539,503.916,134.421,480.8,134.421,452.286z"/>
</g>
<g>
	<path style="fill:#231F20;" d="M197.193,51.853h84.071c4.466,0,8.084-3.62,8.084-8.084s-3.618-8.084-8.084-8.084h-84.071
		c-4.466,0-8.084,3.62-8.084,8.084S192.729,51.853,197.193,51.853z"/>
	<path style="fill:#231F20;" d="M305.486,51.854c2.125,0,4.204-0.862,5.714-2.371c1.498-1.498,2.37-3.589,2.37-5.713
		c0-2.123-0.873-4.215-2.37-5.713c-1.509-1.509-3.589-2.371-5.714-2.371c-2.133,0-4.225,0.862-5.724,2.371
		c-1.509,1.498-2.371,3.579-2.371,5.713c0,2.123,0.862,4.215,2.371,5.713C301.261,50.992,303.353,51.854,305.486,51.854z"/>
	<path style="fill:#231F20;" d="M330.267,51.854c2.134,0,4.215-0.862,5.725-2.371c1.498-1.498,2.359-3.589,2.359-5.713
		c0-2.123-0.862-4.215-2.359-5.713c-1.509-1.509-3.589-2.371-5.725-2.371c-2.123,0-4.203,0.862-5.713,2.371
		c-1.509,1.498-2.371,3.589-2.371,5.713s0.862,4.215,2.371,5.713C326.064,50.992,328.145,51.854,330.267,51.854z"/>
	<path style="fill:#231F20;" d="M351.215,0h-190.43c-32.926,0-59.713,26.788-59.713,59.714v19.281v337.018v36.272
		c0,32.926,26.788,59.714,59.713,59.714h190.429c32.926,0,59.713-26.788,59.713-59.714V59.714C410.928,26.788,384.141,0,351.215,0z
		 M160.785,16.168h190.429c24.01,0,43.545,19.535,43.545,43.546v11.197H117.24V59.714C117.24,35.703,136.775,16.168,160.785,16.168z
		 M351.215,495.832h-190.43c-24.01,0-43.545-19.535-43.545-43.546v-28.188h229.2c4.466,0,8.084-3.62,8.084-8.084
		c0-4.465-3.618-8.084-8.084-8.084h-229.2V87.08h276.444v320.849h-22.453c-4.466,0-8.084,3.62-8.084,8.084
		c0,4.465,3.618,8.084,8.084,8.084h23.528v28.188C394.76,476.297,375.225,495.832,351.215,495.832z"/>
	<path style="fill:#231F20;" d="M288.335,438.297h-64.672c-11.588,0-21.017,9.428-21.017,21.018s9.428,21.019,21.017,21.019h64.672
		c11.59,0,21.019-9.429,21.019-21.019S299.924,438.297,288.335,438.297z M288.335,464.164h-64.672c-2.673,0-4.848-2.176-4.848-4.851
		c0-2.674,2.175-4.849,4.848-4.849h64.672c2.674,0,4.851,2.175,4.851,4.849C293.185,461.988,291.009,464.164,288.335,464.164z"/>
	<path style="fill:#231F20;" d="M188.382,151.089h-22.198c-10.577,0-19.184,8.606-19.184,19.183v22.199
		c0,10.577,8.606,19.183,19.184,19.183h22.198c10.577,0,19.184-8.606,19.184-19.183v-22.199
		C207.565,159.694,198.959,151.089,188.382,151.089z M191.396,192.471c0,1.662-1.353,3.015-3.016,3.015h-22.198
		c-1.663,0-3.016-1.353-3.016-3.015v-22.199c0-1.662,1.353-3.015,3.016-3.015h22.198c1.663,0,3.016,1.353,3.016,3.015V192.471z"/>
	<path style="fill:#231F20;" d="M188.382,224.935h-22.198c-10.577,0-19.184,8.606-19.184,19.183v22.199
		c0,10.577,8.606,19.183,19.184,19.183h22.198c10.577,0,19.184-8.606,19.184-19.183v-22.199
		C207.565,233.541,198.959,224.935,188.382,224.935z M191.396,266.318c0,1.662-1.353,3.015-3.016,3.015h-22.198
		c-1.663,0-3.016-1.353-3.016-3.015v-22.199c0-1.662,1.353-3.015,3.016-3.015h22.198c1.663,0,3.016,1.353,3.016,3.015V266.318z"/>
	<path style="fill:#231F20;" d="M188.382,298.782h-22.198c-10.577,0-19.184,8.606-19.184,19.183v22.199
		c0,10.577,8.606,19.183,19.184,19.183h22.198c10.577,0,19.184-8.606,19.184-19.183v-22.199
		C207.565,307.388,198.959,298.782,188.382,298.782z M191.396,340.164c0,1.662-1.353,3.015-3.016,3.015h-22.198
		c-1.663,0-3.016-1.353-3.016-3.015v-22.199c0-1.662,1.353-3.015,3.016-3.015h22.198c1.663,0,3.016,1.353,3.016,3.015V340.164z"/>
	<path style="fill:#231F20;" d="M264.082,151.089h-22.198c-10.577,0-19.184,8.606-19.184,19.183v22.199
		c0,10.577,8.606,19.183,19.184,19.183h22.198c10.577,0,19.184-8.606,19.184-19.183v-22.199
		C283.266,159.694,274.66,151.089,264.082,151.089z M267.098,192.471c0,1.662-1.353,3.015-3.016,3.015h-22.198
		c-1.663,0-3.016-1.353-3.016-3.015v-22.199c0-1.662,1.353-3.015,3.016-3.015h22.198c1.663,0,3.016,1.353,3.016,3.015V192.471z"/>
	<path style="fill:#231F20;" d="M264.082,224.935h-22.198c-10.577,0-19.184,8.606-19.184,19.183v22.199
		c0,10.577,8.606,19.183,19.184,19.183h22.198c10.577,0,19.184-8.606,19.184-19.183v-22.199
		C283.266,233.541,274.66,224.935,264.082,224.935z M267.098,266.318c0,1.662-1.353,3.015-3.016,3.015h-22.198
		c-1.663,0-3.016-1.353-3.016-3.015v-22.199c0-1.662,1.353-3.015,3.016-3.015h22.198c1.663,0,3.016,1.353,3.016,3.015V266.318z"/>
	<path style="fill:#231F20;" d="M264.082,298.782h-22.198c-10.577,0-19.184,8.606-19.184,19.183v22.199
		c0,10.577,8.606,19.183,19.184,19.183h22.198c10.577,0,19.184-8.606,19.184-19.183v-22.199
		C283.266,307.388,274.66,298.782,264.082,298.782z M267.098,340.164c0,1.662-1.353,3.015-3.016,3.015h-22.198
		c-1.663,0-3.016-1.353-3.016-3.015v-22.199c0-1.662,1.353-3.015,3.016-3.015h22.198c1.663,0,3.016,1.353,3.016,3.015V340.164z"/>
	<path style="fill:#231F20;" d="M339.784,151.089h-22.198c-10.577,0-19.184,8.606-19.184,19.183v22.199
		c0,10.577,8.606,19.183,19.184,19.183h22.198c10.577,0,19.184-8.606,19.184-19.183v-22.199
		C358.967,159.694,350.361,151.089,339.784,151.089z M342.799,192.471c0,1.662-1.353,3.015-3.016,3.015h-22.198
		c-1.663,0-3.016-1.353-3.016-3.015v-22.199c0-1.662,1.353-3.015,3.016-3.015h22.198c1.663,0,3.016,1.353,3.016,3.015V192.471z"/>
	<path style="fill:#231F20;" d="M339.784,224.935h-22.198c-10.577,0-19.184,8.606-19.184,19.183v22.199
		c0,10.577,8.606,19.183,19.184,19.183h22.198c10.577,0,19.184-8.606,19.184-19.183v-22.199
		C358.967,233.541,350.361,224.935,339.784,224.935z M342.799,266.318c0,1.662-1.353,3.015-3.016,3.015h-22.198
		c-1.663,0-3.016-1.353-3.016-3.015v-22.199c0-1.662,1.353-3.015,3.016-3.015h22.198c1.663,0,3.016,1.353,3.016,3.015V266.318z"/>
	<path style="fill:#231F20;" d="M339.784,298.782h-22.198c-10.577,0-19.184,8.606-19.184,19.183v22.199
		c0,10.577,8.606,19.183,19.184,19.183h22.198c10.577,0,19.184-8.606,19.184-19.183v-22.199
		C358.967,307.388,350.361,298.782,339.784,298.782z M342.799,340.164c0,1.662-1.353,3.015-3.016,3.015h-22.198
		c-1.663,0-3.016-1.353-3.016-3.015v-22.199c0-1.662,1.353-3.015,3.016-3.015h22.198c1.663,0,3.016,1.353,3.016,3.015V340.164z"/>
</g>
</svg>